<?xml version="1.0" encoding="UTF-8"?>
<!DOCTYPE svg PUBLIC "-//W3C//DTD SVG 1.1//EN" "http://www.w3.org/Graphics/SVG/1.1/DTD/svg11.dtd">
<svg xmlns="http://www.w3.org/2000/svg" version="1.1" width="1000px" height="1000px" style="shape-rendering:geometricPrecision; text-rendering:geometricPrecision; image-rendering:optimizeQuality; fill-rule:evenodd; clip-rule:evenodd" xmlns:xlink="http://www.w3.org/1999/xlink">
<g><path style="opacity:0.997" fill="#e1e1e1" d="M 529.5,133.5 C 529.167,133.5 528.833,133.5 528.5,133.5C 515.01,132.504 501.344,132.171 487.5,132.5C 487.5,132.167 487.5,131.833 487.5,131.5C 501.327,130.339 515.327,130.173 529.5,131C 530.774,131.977 530.774,132.811 529.5,133.5 Z"/></g>
<g><path style="opacity:0.574" fill="#e3e3e3" d="M 487.5,131.5 C 487.5,131.833 487.5,132.167 487.5,132.5C 486.836,206.174 487.503,279.508 489.5,352.5C 488.828,353.267 487.995,353.934 487,354.5C 486.832,280.597 486.332,206.763 485.5,133C 486.044,132.283 486.711,131.783 487.5,131.5 Z"/></g>
<g><path style="opacity:1" fill="#dddddd" d="M 487.5,132.5 C 501.344,132.171 515.01,132.504 528.5,133.5C 528.5,199.833 528.5,266.167 528.5,332.5C 526.517,332.157 525.183,332.824 524.5,334.5C 522.157,335.344 519.824,336.344 517.5,337.5C 516.127,337.343 514.793,337.51 513.5,338C 510.813,339.049 508.48,340.549 506.5,342.5C 504.62,342.229 503.287,342.896 502.5,344.5C 498.342,347.414 494.009,350.081 489.5,352.5C 487.503,279.508 486.836,206.174 487.5,132.5 Z"/></g>
<g><path style="opacity:0.714" fill="#e1e1e1" d="M 528.5,133.5 C 528.833,133.5 529.167,133.5 529.5,133.5C 529.169,199.404 529.502,265.238 530.5,331C 529.257,333.455 527.257,334.622 524.5,334.5C 525.183,332.824 526.517,332.157 528.5,332.5C 528.5,266.167 528.5,199.833 528.5,133.5 Z"/></g>
<g><path style="opacity:0.713" fill="#e4e4e4" d="M 568.5,136.5 C 566.167,136.5 563.833,136.5 561.5,136.5C 561.5,199.5 561.5,262.5 561.5,325.5C 575.515,324.335 589.515,324.168 603.5,325C 604.252,324.329 604.586,323.496 604.5,322.5C 604.168,279.663 604.501,236.997 605.5,194.5C 605.667,238.168 605.5,281.835 605,325.5C 604.481,326.516 603.647,327.182 602.5,327.5C 588.948,324.938 575.448,324.938 562,327.5C 561.667,327.167 561.333,326.833 561,326.5C 560.5,262.834 560.333,199.168 560.5,135.5C 563.385,135.194 566.052,135.527 568.5,136.5 Z"/></g>
<g><path style="opacity:0.986" fill="#e4e4e4" d="M 448.5,137.5 C 449.568,136.566 450.901,136.232 452.5,136.5C 452.667,221.167 452.5,305.834 452,390.5C 451.5,391 451,391.5 450.5,392C 443.782,392.795 437.116,392.628 430.5,391.5C 429.501,381.188 429.168,370.855 429.5,360.5C 430.494,370.319 430.827,380.319 430.5,390.5C 437.167,390.5 443.833,390.5 450.5,390.5C 451.164,305.827 450.497,221.493 448.5,137.5 Z"/></g>
<g><path style="opacity:0.999" fill="#dedede" d="M 568.5,136.5 C 568.833,136.5 569.167,136.5 569.5,136.5C 570.681,138.067 572.347,138.901 574.5,139C 581.249,139.559 587.916,140.392 594.5,141.5C 595.167,141.5 595.833,141.5 596.5,141.5C 597.99,143.28 599.99,143.946 602.5,143.5C 605.059,143.198 607.393,143.532 609.5,144.5C 610.918,146.308 612.918,146.975 615.5,146.5C 615.833,146.5 616.167,146.5 616.5,146.5C 618.956,148.868 621.956,149.868 625.5,149.5C 627.438,151.163 629.772,151.829 632.5,151.5C 634.956,153.868 637.956,154.868 641.5,154.5C 643.698,154.875 645.698,155.542 647.5,156.5C 649.684,158.585 652.351,159.585 655.5,159.5C 658.38,159.94 661.046,160.94 663.5,162.5C 665.434,165.058 668.101,166.391 671.5,166.5C 673.185,168.818 675.519,169.818 678.5,169.5C 680.336,171.588 682.669,172.921 685.5,173.5C 689.83,174.937 693.83,176.937 697.5,179.5C 697.973,180.906 698.973,181.573 700.5,181.5C 701.492,181.328 702.158,181.662 702.5,182.5C 702.973,183.906 703.973,184.573 705.5,184.5C 731.376,199.515 754.542,218.182 775,240.5C 792.957,261.083 808.957,283.083 823,306.5C 825.807,311.776 828.307,317.109 830.5,322.5C 830.586,323.496 830.252,324.329 829.5,325C 822.956,325.331 816.623,326.165 810.5,327.5C 809.5,327.5 808.5,327.5 807.5,327.5C 804.447,327.111 801.78,327.777 799.5,329.5C 796.5,329.5 793.5,329.5 790.5,329.5C 770.484,296.15 745.151,267.483 714.5,243.5C 713.362,240.914 711.362,239.247 708.5,238.5C 706.566,237.89 704.899,236.89 703.5,235.5C 702.461,233.469 700.795,232.136 698.5,231.5C 695.489,230.331 692.822,228.664 690.5,226.5C 689.089,224.461 687.089,223.461 684.5,223.5C 683.833,223.5 683.5,223.167 683.5,222.5C 681.66,220.331 679.326,218.998 676.5,218.5C 675.089,216.461 673.089,215.461 670.5,215.5C 665.256,213.564 660.256,211.231 655.5,208.5C 653.815,206.182 651.481,205.182 648.5,205.5C 646.214,205.405 644.214,204.738 642.5,203.5C 640.044,201.132 637.044,200.132 633.5,200.5C 632.01,198.72 630.01,198.054 627.5,198.5C 626.833,198.5 626.167,198.5 625.5,198.5C 622.373,195.945 618.706,194.945 614.5,195.5C 614.167,195.5 613.833,195.5 613.5,195.5C 612.01,193.72 610.01,193.054 607.5,193.5C 606.739,192.609 605.739,191.942 604.5,191.5C 603.169,235.331 603.169,278.998 604.5,322.5C 604.586,323.496 604.252,324.329 603.5,325C 589.515,324.168 575.515,324.335 561.5,325.5C 561.5,262.5 561.5,199.5 561.5,136.5C 563.833,136.5 566.167,136.5 568.5,136.5 Z"/></g>
<g><path style="opacity:0.999" fill="#dedede" d="M 448.5,137.5 C 450.497,221.493 451.164,305.827 450.5,390.5C 443.833,390.5 437.167,390.5 430.5,390.5C 430.827,380.319 430.494,370.319 429.5,360.5C 429.5,360.167 429.5,359.833 429.5,359.5C 429.976,355.622 428.976,352.288 426.5,349.5C 425.035,348.594 424.035,347.261 423.5,345.5C 424.524,344.148 425.524,342.815 426.5,341.5C 428.975,340.313 429.975,338.313 429.5,335.5C 430.659,333.145 431.659,330.812 432.5,328.5C 434.423,324.971 435.089,320.971 434.5,316.5C 434.5,315.167 434.5,313.833 434.5,312.5C 435.198,306.33 434.198,300.664 431.5,295.5C 428.565,290.877 425.565,286.21 422.5,281.5C 422.573,279.973 421.906,278.973 420.5,278.5C 418.495,276.666 416.328,274.999 414,273.5C 413.17,248.33 413.337,223.33 414.5,198.5C 415.271,195.154 415.938,191.654 416.5,188C 415.038,185.799 413.038,185.133 410.5,186C 406.77,186.911 403.437,188.411 400.5,190.5C 397.612,189.99 395.279,190.656 393.5,192.5C 390.67,193.735 387.67,194.735 384.5,195.5C 381.169,195.018 378.503,196.018 376.5,198.5C 374.62,198.229 373.287,198.896 372.5,200.5C 370.351,201.736 368.018,202.736 365.5,203.5C 362.057,204.059 359.057,205.393 356.5,207.5C 351.635,210.432 346.635,213.099 341.5,215.5C 339.067,215.273 337.401,216.273 336.5,218.5C 334.544,219.492 332.544,220.492 330.5,221.5C 327.663,221.684 325.663,223.018 324.5,225.5C 319.009,229.746 313.342,233.746 307.5,237.5C 305.973,237.427 304.973,238.094 304.5,239.5C 302.14,241.853 299.473,243.853 296.5,245.5C 278.167,245.5 259.833,245.5 241.5,245.5C 241.5,244.5 241.5,243.5 241.5,242.5C 241.833,241.5 242.5,240.833 243.5,240.5C 246.427,239.243 248.761,237.243 250.5,234.5C 252.477,231.532 255.144,229.198 258.5,227.5C 260.404,227.262 261.738,226.262 262.5,224.5C 280.601,208.942 300.268,195.609 321.5,184.5C 323.97,184.346 325.97,183.346 327.5,181.5C 330.979,178.372 334.979,176.039 339.5,174.5C 342.631,175.092 344.964,174.092 346.5,171.5C 354.009,167.776 361.675,164.443 369.5,161.5C 373.93,160.733 377.93,159.067 381.5,156.5C 382.209,155.596 383.209,155.263 384.5,155.5C 388.532,154.918 392.199,153.584 395.5,151.5C 400.17,150.984 404.503,149.651 408.5,147.5C 409.209,146.596 410.209,146.263 411.5,146.5C 413.857,146.663 416.19,146.497 418.5,146C 419.056,145.617 419.389,145.117 419.5,144.5C 423.647,144.874 427.314,143.874 430.5,141.5C 430.833,141.5 431.167,141.5 431.5,141.5C 436.013,140.929 440.346,139.929 444.5,138.5C 445.568,137.566 446.901,137.232 448.5,137.5 Z"/></g>
<g><path style="opacity:0.685" fill="#e3e3e3" d="M 569.5,136.5 C 578.054,137.662 586.387,139.329 594.5,141.5C 587.916,140.392 581.249,139.559 574.5,139C 572.347,138.901 570.681,138.067 569.5,136.5 Z"/></g>
<g><path style="opacity:0.592" fill="#e4e4e4" d="M 444.5,138.5 C 440.346,139.929 436.013,140.929 431.5,141.5C 435.393,139.124 439.727,138.124 444.5,138.5 Z"/></g>
<g><path style="opacity:0.571" fill="#e5e5e5" d="M 596.5,141.5 C 598.786,141.595 600.786,142.262 602.5,143.5C 599.99,143.946 597.99,143.28 596.5,141.5 Z"/></g>
<g><path style="opacity:0.657" fill="#e3e3e3" d="M 430.5,141.5 C 427.314,143.874 423.647,144.874 419.5,144.5C 423.011,143.336 426.677,142.336 430.5,141.5 Z"/></g>
<g><path style="opacity:0.524" fill="#e4e4e4" d="M 419.5,144.5 C 419.389,145.117 419.056,145.617 418.5,146C 416.19,146.497 413.857,146.663 411.5,146.5C 413.961,145.469 416.627,144.802 419.5,144.5 Z"/></g>
<g><path style="opacity:0.653" fill="#e4e4e4" d="M 609.5,144.5 C 611.786,144.595 613.786,145.262 615.5,146.5C 612.918,146.975 610.918,146.308 609.5,144.5 Z"/></g>
<g><path style="opacity:0.607" fill="#e4e4e4" d="M 408.5,147.5 C 404.503,149.651 400.17,150.984 395.5,151.5C 399.49,149.413 403.823,148.08 408.5,147.5 Z"/></g>
<g><path style="opacity:0.629" fill="#e4e4e4" d="M 616.5,146.5 C 619.785,146.928 622.785,147.928 625.5,149.5C 621.956,149.868 618.956,148.868 616.5,146.5 Z"/></g>
<g><path style="opacity:0.535" fill="#e4e4e4" d="M 625.5,149.5 C 628.067,149.721 630.401,150.388 632.5,151.5C 629.772,151.829 627.438,151.163 625.5,149.5 Z"/></g>
<g><path style="opacity:0.607" fill="#e4e4e4" d="M 395.5,151.5 C 392.199,153.584 388.532,154.918 384.5,155.5C 384.611,154.883 384.944,154.383 385.5,154C 388.824,153.057 392.157,152.224 395.5,151.5 Z"/></g>
<g><path style="opacity:0.642" fill="#e3e3e3" d="M 632.5,151.5 C 635.67,152.265 638.67,153.265 641.5,154.5C 637.956,154.868 634.956,153.868 632.5,151.5 Z"/></g>
<g><path style="opacity:0.548" fill="#e4e4e4" d="M 381.5,156.5 C 377.93,159.067 373.93,160.733 369.5,161.5C 373.218,159.233 377.218,157.566 381.5,156.5 Z"/></g>
<g><path style="opacity:0.607" fill="#e4e4e4" d="M 647.5,156.5 C 650.443,156.98 653.11,157.98 655.5,159.5C 652.351,159.585 649.684,158.585 647.5,156.5 Z"/></g>
<g><path style="opacity:0.657" fill="#e4e4e4" d="M 663.5,162.5 C 666.48,163.323 669.147,164.657 671.5,166.5C 668.101,166.391 665.434,165.058 663.5,162.5 Z"/></g>
<g><path style="opacity:0.543" fill="#e4e4e4" d="M 671.5,166.5 C 674.063,167.088 676.396,168.088 678.5,169.5C 675.519,169.818 673.185,168.818 671.5,166.5 Z"/></g>
<g><path style="opacity:0.589" fill="#e4e4e4" d="M 346.5,171.5 C 344.964,174.092 342.631,175.092 339.5,174.5C 341.649,173.264 343.982,172.264 346.5,171.5 Z"/></g>
<g><path style="opacity:0.571" fill="#e5e5e5" d="M 678.5,169.5 C 681.331,170.079 683.664,171.412 685.5,173.5C 682.669,172.921 680.336,171.588 678.5,169.5 Z"/></g>
<g><path style="opacity:0.429" fill="#e6e6e6" d="M 697.5,179.5 C 699.027,179.427 700.027,180.094 700.5,181.5C 698.973,181.573 697.973,180.906 697.5,179.5 Z"/></g>
<g><path style="opacity:0.535" fill="#e5e5e5" d="M 327.5,181.5 C 325.97,183.346 323.97,184.346 321.5,184.5C 323.03,182.654 325.03,181.654 327.5,181.5 Z"/></g>
<g><path style="opacity:0.5" fill="#e5e5e5" d="M 702.5,182.5 C 704.027,182.427 705.027,183.094 705.5,184.5C 703.973,184.573 702.973,183.906 702.5,182.5 Z"/></g>
<g><path style="opacity:0.758" fill="#e3e3e3" d="M 414.5,198.5 C 414.789,194.894 414.456,191.394 413.5,188C 409.049,188.027 404.716,188.861 400.5,190.5C 403.437,188.411 406.77,186.911 410.5,186C 413.038,185.133 415.038,185.799 416.5,188C 415.938,191.654 415.271,195.154 414.5,198.5 Z"/></g>
<g><path style="opacity:0.633" fill="#e5e5e5" d="M 400.5,190.5 C 398.401,191.612 396.067,192.279 393.5,192.5C 395.279,190.656 397.612,189.99 400.5,190.5 Z"/></g>
<g><path style="opacity:0.991" fill="#e1e1e1" d="M 607.5,193.5 C 606.833,193.833 606.167,194.167 605.5,194.5C 604.501,236.997 604.168,279.663 604.5,322.5C 603.169,278.998 603.169,235.331 604.5,191.5C 605.739,191.942 606.739,192.609 607.5,193.5 Z"/></g>
<g><path style="opacity:0.544" fill="#e6e6e6" d="M 607.5,193.5 C 610.01,193.054 612.01,193.72 613.5,195.5C 611.214,195.405 609.214,194.738 607.5,193.5 Z"/></g>
<g><path style="opacity:0.286" fill="#e5e5e5" d="M 384.5,195.5 C 381.876,196.494 379.21,197.494 376.5,198.5C 378.503,196.018 381.169,195.018 384.5,195.5 Z"/></g>
<g><path style="opacity:0.5" fill="#e5e5e5" d="M 614.5,195.5 C 618.706,194.945 622.373,195.945 625.5,198.5C 621.677,197.664 618.011,196.664 614.5,195.5 Z"/></g>
<g><path style="opacity:0.524" fill="#e5e5e5" d="M 627.5,198.5 C 630.01,198.054 632.01,198.72 633.5,200.5C 631.214,200.405 629.214,199.738 627.5,198.5 Z"/></g>
<g><path style="opacity:0.141" fill="#e7e7e7" d="M 376.5,198.5 C 375.486,199.674 374.153,200.34 372.5,200.5C 373.287,198.896 374.62,198.229 376.5,198.5 Z"/></g>
<g><path style="opacity:0.571" fill="#e4e4e4" d="M 633.5,200.5 C 637.044,200.132 640.044,201.132 642.5,203.5C 639.33,202.735 636.33,201.735 633.5,200.5 Z"/></g>
<g><path style="opacity:0.572" fill="#e5e5e5" d="M 365.5,203.5 C 362.912,205.625 359.912,206.958 356.5,207.5C 359.057,205.393 362.057,204.059 365.5,203.5 Z"/></g>
<g><path style="opacity:0.643" fill="#e3e3e3" d="M 648.5,205.5 C 651.481,205.182 653.815,206.182 655.5,208.5C 652.759,208.293 650.426,207.293 648.5,205.5 Z"/></g>
<g><path style="opacity:0.524" fill="#e4e4e4" d="M 670.5,215.5 C 673.089,215.461 675.089,216.461 676.5,218.5C 674.181,218.008 672.181,217.008 670.5,215.5 Z"/></g>
<g><path style="opacity:0.141" fill="#e6e6e6" d="M 341.5,215.5 C 340.101,216.89 338.434,217.89 336.5,218.5C 337.401,216.273 339.067,215.273 341.5,215.5 Z"/></g>
<g><path style="opacity:0.571" fill="#e5e5e5" d="M 676.5,218.5 C 679.326,218.998 681.66,220.331 683.5,222.5C 680.669,221.921 678.336,220.588 676.5,218.5 Z"/></g>
<g><path style="opacity:0.572" fill="#e4e4e4" d="M 330.5,221.5 C 328.795,223.192 326.795,224.525 324.5,225.5C 325.663,223.018 327.663,221.684 330.5,221.5 Z"/></g>
<g><path style="opacity:0.643" fill="#e4e4e4" d="M 684.5,223.5 C 687.089,223.461 689.089,224.461 690.5,226.5C 688.181,226.008 686.181,225.008 684.5,223.5 Z"/></g>
<g><path style="opacity:0.573" fill="#e5e5e5" d="M 262.5,224.5 C 261.738,226.262 260.404,227.262 258.5,227.5C 259.262,225.738 260.596,224.738 262.5,224.5 Z"/></g>
<g><path style="opacity:0.607" fill="#e4e4e4" d="M 698.5,231.5 C 700.795,232.136 702.461,233.469 703.5,235.5C 701.246,234.876 699.579,233.543 698.5,231.5 Z"/></g>
<g><path style="opacity:0.714" fill="#e4e4e4" d="M 250.5,234.5 C 248.761,237.243 246.427,239.243 243.5,240.5C 245.239,237.757 247.573,235.757 250.5,234.5 Z"/></g>
<g><path style="opacity:0.141" fill="#e6e6e6" d="M 307.5,237.5 C 307.027,238.906 306.027,239.573 304.5,239.5C 304.973,238.094 305.973,237.427 307.5,237.5 Z"/></g>
<g><path style="opacity:0.643" fill="#e5e5e5" d="M 708.5,238.5 C 711.362,239.247 713.362,240.914 714.5,243.5C 712.091,242.299 710.091,240.633 708.5,238.5 Z"/></g>
<g><path style="opacity:0.149" fill="#e8e8e8" d="M 241.5,242.5 C 241.5,243.5 241.5,244.5 241.5,245.5C 259.833,245.5 278.167,245.5 296.5,245.5C 277.329,246.828 257.996,246.828 238.5,245.5C 239.188,244.145 240.188,243.145 241.5,242.5 Z"/></g>
<g><path style="opacity:0.999" fill="#dedede" d="M 747.5,305.5 C 747.427,307.027 748.094,308.027 749.5,308.5C 753.575,312.976 756.908,317.976 759.5,323.5C 760.169,326.849 761.836,329.516 764.5,331.5C 770.49,336.509 769.824,340.175 762.5,342.5C 760.62,342.229 759.287,342.896 758.5,344.5C 757.486,345.674 756.153,346.34 754.5,346.5C 752.973,346.427 751.973,347.094 751.5,348.5C 738.223,358.111 726.223,369.111 715.5,381.5C 713.413,382.585 712.08,384.251 711.5,386.5C 711.267,388.062 710.6,389.395 709.5,390.5C 703.833,390.5 698.167,390.5 692.5,390.5C 692.667,379.828 692.5,369.161 692,358.5C 691.722,357.584 691.222,356.918 690.5,356.5C 690.5,354.5 690.5,352.5 690.5,350.5C 692.752,351.333 694.919,351.333 697,350.5C 697.5,321.169 697.667,291.835 697.5,262.5C 697.56,261.957 697.893,261.624 698.5,261.5C 718.614,271.947 734.947,286.614 747.5,305.5 Z"/></g>
<g><path style="opacity:0.141" fill="#e7e7e7" d="M 420.5,278.5 C 421.906,278.973 422.573,279.973 422.5,281.5C 421.094,281.027 420.427,280.027 420.5,278.5 Z"/></g>
<g><path style="opacity:1" fill="#dddddd" d="M 318.5,304.5 C 261.668,303.335 204.668,303.168 147.5,304C 146.944,304.383 146.611,304.883 146.5,305.5C 145.502,342.663 145.168,379.996 145.5,417.5C 185.5,417.5 225.5,417.5 265.5,417.5C 265.5,425.167 265.5,432.833 265.5,440.5C 225.996,440.168 186.663,440.501 147.5,441.5C 145.504,492.489 144.838,543.822 145.5,595.5C 137.167,595.5 128.833,595.5 120.5,595.5C 120.667,498.499 120.5,401.499 120,304.5C 119.023,303.226 118.189,303.226 117.5,304.5C 117.167,304.5 116.833,304.5 116.5,304.5C 109.197,303.271 102.864,304.938 97.5,309.5C 95.4623,312.526 93.4623,315.526 91.5,318.5C 91.1333,321.692 89.6333,324.359 87,326.5C 80.5809,325.687 74.0809,325.187 67.5,325C 67.2812,321.318 67.2812,317.484 67.5,313.5C 70.9972,298.48 79.9972,288.48 94.5,283.5C 97.5184,283.665 100.518,283.498 103.5,283C 104.056,282.617 104.389,282.117 104.5,281.5C 107.977,280.677 111.644,280.177 115.5,280C 184.169,279.167 252.836,279.333 321.5,280.5C 322.633,288.117 322.8,295.784 322,303.5C 320.989,304.337 319.822,304.67 318.5,304.5 Z"/></g>
<g><path style="opacity:0.696" fill="#e5e5e5" d="M 104.5,281.5 C 104.389,282.117 104.056,282.617 103.5,283C 100.518,283.498 97.5184,283.665 94.5,283.5C 97.5885,282.215 100.922,281.549 104.5,281.5 Z"/></g>
<g><path style="opacity:0.636" fill="#e3e3e3" d="M 374.5,296.5 C 378.981,295.352 383.648,295.185 388.5,296C 389.056,296.383 389.389,296.883 389.5,297.5C 384.562,296.608 379.562,296.274 374.5,296.5 Z"/></g>
<g><path style="opacity:0.997" fill="#dedede" d="M 374.5,296.5 C 379.562,296.274 384.562,296.608 389.5,297.5C 393.702,298.863 396.869,301.53 399,305.5C 403.092,321.655 396.925,330.989 380.5,333.5C 363.269,329.037 358.436,318.703 366,302.5C 368.249,299.629 371.082,297.629 374.5,296.5 Z"/></g>
<g><path style="opacity:0.571" fill="#e5e5e5" d="M 431.5,295.5 C 434.198,300.664 435.198,306.33 434.5,312.5C 433.699,306.9 432.699,301.233 431.5,295.5 Z"/></g>
<g><path style="opacity:0.432" fill="#e4e4e4" d="M 117.5,304.5 C 118.189,303.226 119.023,303.226 120,304.5C 120.5,401.499 120.667,498.499 120.5,595.5C 128.833,595.5 137.167,595.5 145.5,595.5C 137.016,596.493 128.349,596.826 119.5,596.5C 119.667,499.499 119.5,402.499 119,305.5C 118.617,304.944 118.117,304.611 117.5,304.5 Z"/></g>
<g><path style="opacity:0.714" fill="#e2e2e2" d="M 318.5,304.5 C 261.125,304.175 203.792,304.508 146.5,305.5C 146.611,304.883 146.944,304.383 147.5,304C 204.668,303.168 261.668,303.335 318.5,304.5 Z"/></g>
<g><path style="opacity:0.49" fill="#e5e5e5" d="M 116.5,304.5 C 113.023,305.323 109.356,305.823 105.5,306C 102.921,307.467 100.254,308.634 97.5,309.5C 102.864,304.938 109.197,303.271 116.5,304.5 Z"/></g>
<g><path style="opacity:0.436" fill="#e4e4e4" d="M 146.5,305.5 C 146.17,342.406 146.504,379.239 147.5,416C 187.002,416.167 226.335,416.667 265.5,417.5C 225.5,417.5 185.5,417.5 145.5,417.5C 145.168,379.996 145.502,342.663 146.5,305.5 Z"/></g>
<g><path style="opacity:0.573" fill="#e5e5e5" d="M 747.5,305.5 C 748.906,305.973 749.573,306.973 749.5,308.5C 748.094,308.027 747.427,307.027 747.5,305.5 Z"/></g>
<g><path style="opacity:0.553" fill="#e5e5e5" d="M 434.5,316.5 C 435.089,320.971 434.423,324.971 432.5,328.5C 433.04,324.358 433.706,320.358 434.5,316.5 Z"/></g>
<g><path style="opacity:0.622" fill="#e4e4e4" d="M 830.5,322.5 C 832.104,323.287 832.771,324.62 832.5,326.5C 825.173,326.944 817.84,327.277 810.5,327.5C 816.623,326.165 822.956,325.331 829.5,325C 830.252,324.329 830.586,323.496 830.5,322.5 Z"/></g>
<g><path style="opacity:0.613" fill="#e4e4e4" d="M 67.5,313.5 C 67.2812,317.484 67.2812,321.318 67.5,325C 74.0809,325.187 80.5809,325.687 87,326.5C 89.6333,324.359 91.1333,321.692 91.5,318.5C 91.846,321.602 91.1793,324.435 89.5,327C 81.3705,326.53 73.3705,326.363 65.5,326.5C 65.7704,321.972 66.4371,317.639 67.5,313.5 Z"/></g>
<g><path style="opacity:0.535" fill="#e4e4e4" d="M 759.5,323.5 C 761.664,325.822 763.331,328.489 764.5,331.5C 761.836,329.516 760.169,326.849 759.5,323.5 Z"/></g>
<g><path style="opacity:0.214" fill="#e6e6e6" d="M 807.5,327.5 C 805.095,328.768 802.428,329.435 799.5,329.5C 801.78,327.777 804.447,327.111 807.5,327.5 Z"/></g>
<g><path style="opacity:0.5" fill="#e5e5e5" d="M 790.5,329.5 C 793.5,329.5 796.5,329.5 799.5,329.5C 797.444,330.216 795.277,330.883 793,331.5C 792.005,330.934 791.172,330.267 790.5,329.5 Z"/></g>
<g><path style="opacity:0.571" fill="#e5e5e5" d="M 429.5,335.5 C 429.975,338.313 428.975,340.313 426.5,341.5C 427.508,339.456 428.508,337.456 429.5,335.5 Z"/></g>
<g><path style="opacity:0.71" fill="#e2e2e2" d="M 321.5,339.5 C 295.167,339.5 268.833,339.5 242.5,339.5C 268.236,338.829 294.069,338.162 320,337.5C 320.717,338.044 321.217,338.711 321.5,339.5 Z"/></g>
<g><path style="opacity:0.999" fill="#dddddd" d="M 218.5,341.5 C 213.829,351.508 209.163,361.508 204.5,371.5C 202.896,372.287 202.229,373.62 202.5,375.5C 202.771,377.38 202.104,378.713 200.5,379.5C 194.455,381.393 188.121,382.06 181.5,381.5C 181.333,367.829 181.5,354.163 182,340.5C 188.089,339.843 194.256,339.51 200.5,339.5C 206.872,339.504 212.872,340.171 218.5,341.5 Z"/></g>
<g><path style="opacity:0.999" fill="#dddddd" d="M 242.5,339.5 C 268.833,339.5 295.167,339.5 321.5,339.5C 321.805,341.919 321.805,344.586 321.5,347.5C 321.712,349.384 322.712,350.717 324.5,351.5C 328.429,350.567 332.429,350.234 336.5,350.5C 336.5,352.5 336.5,354.5 336.5,356.5C 336.5,357.167 336.5,357.833 336.5,358.5C 335.883,358.611 335.383,358.944 335,359.5C 334.5,369.828 334.334,380.161 334.5,390.5C 319.167,390.5 303.833,390.5 288.5,390.5C 282.931,386.221 276.598,383.887 269.5,383.5C 269.389,382.883 269.056,382.383 268.5,382C 253.837,381.5 239.17,381.333 224.5,381.5C 224.5,379.5 224.5,377.5 224.5,375.5C 224.989,374.005 225.655,372.671 226.5,371.5C 228.982,369.497 229.982,366.831 229.5,363.5C 231.323,358.52 233.657,353.853 236.5,349.5C 238.975,348.313 239.975,346.313 239.5,343.5C 240.026,341.77 241.026,340.436 242.5,339.5 Z"/></g>
<g><path style="opacity:0.571" fill="#e4e4e4" d="M 517.5,337.5 C 514.198,339.723 510.532,341.39 506.5,342.5C 508.48,340.549 510.813,339.049 513.5,338C 514.793,337.51 516.127,337.343 517.5,337.5 Z"/></g>
<g><path style="opacity:0.787" fill="#e3e3e3" d="M 218.5,341.5 C 212.872,340.171 206.872,339.504 200.5,339.5C 194.256,339.51 188.089,339.843 182,340.5C 181.5,354.163 181.333,367.829 181.5,381.5C 188.121,382.06 194.455,381.393 200.5,379.5C 200.67,380.822 200.337,381.989 199.5,383C 193.251,383.809 187.084,383.642 181,382.5C 180.598,381.128 180.098,379.795 179.5,378.5C 180.833,365.833 180.833,353.167 179.5,340.5C 179.709,339.914 180.043,339.414 180.5,339C 193.496,338.5 206.496,338.333 219.5,338.5C 219.737,339.791 219.404,340.791 218.5,341.5 Z"/></g>
<g><path style="opacity:0.141" fill="#e6e6e6" d="M 506.5,342.5 C 505.486,343.674 504.153,344.34 502.5,344.5C 503.287,342.896 504.62,342.229 506.5,342.5 Z"/></g>
<g><path style="opacity:0.141" fill="#e6e6e6" d="M 762.5,342.5 C 761.486,343.674 760.153,344.34 758.5,344.5C 759.287,342.896 760.62,342.229 762.5,342.5 Z"/></g>
<g><path style="opacity:0.572" fill="#e4e4e4" d="M 239.5,343.5 C 239.975,346.313 238.975,348.313 236.5,349.5C 237.508,347.456 238.508,345.456 239.5,343.5 Z"/></g>
<g><path style="opacity:0.141" fill="#e6e6e6" d="M 754.5,346.5 C 754.027,347.906 753.027,348.573 751.5,348.5C 751.973,347.094 752.973,346.427 754.5,346.5 Z"/></g>
<g><path style="opacity:0.669" fill="#e6e6e6" d="M 697.5,262.5 C 697.667,291.835 697.5,321.169 697,350.5C 694.919,351.333 692.752,351.333 690.5,350.5C 690.5,352.5 690.5,354.5 690.5,356.5C 689.388,354.401 688.721,352.067 688.5,349.5C 691.119,349.768 693.619,349.435 696,348.5C 696.168,319.664 696.668,290.997 697.5,262.5 Z"/></g>
<g><path style="opacity:0.629" fill="#e4e4e4" d="M 321.5,347.5 C 326.803,349.747 332.303,350.08 338,348.5C 338.692,349.025 339.192,349.692 339.5,350.5C 338.199,352.444 337.199,354.444 336.5,356.5C 336.5,354.5 336.5,352.5 336.5,350.5C 332.429,350.234 328.429,350.567 324.5,351.5C 322.712,350.717 321.712,349.384 321.5,347.5 Z"/></g>
<g><path style="opacity:0.515" fill="#e4e4e4" d="M 426.5,349.5 C 428.976,352.288 429.976,355.622 429.5,359.5C 428.51,356.261 427.51,352.928 426.5,349.5 Z"/></g>
<g><path style="opacity:0.577" fill="#e4e4e4" d="M 690.5,356.5 C 691.222,356.918 691.722,357.584 692,358.5C 692.5,369.161 692.667,379.828 692.5,390.5C 698.167,390.5 703.833,390.5 709.5,390.5C 709.082,391.222 708.416,391.722 707.5,392C 702.249,392.804 697.082,392.637 692,391.5C 691.77,379.801 691.27,368.134 690.5,356.5 Z"/></g>
<g><path style="opacity:0.596" fill="#e5e5e5" d="M 605.5,361.5 C 590.496,360.333 575.496,360.333 560.5,361.5C 575.5,358.833 590.5,358.833 605.5,361.5 Z"/></g>
<g><path style="opacity:0.999" fill="#dddddd" d="M 605.5,361.5 C 605.833,361.5 606.167,361.5 606.5,361.5C 614.558,363.67 622.891,364.67 631.5,364.5C 639.5,364.5 647.5,364.5 655.5,364.5C 656.804,466.104 656.804,567.77 655.5,669.5C 654.463,677.547 651.796,684.88 647.5,691.5C 645.896,692.287 645.229,693.62 645.5,695.5C 640.879,703.122 634.879,709.455 627.5,714.5C 625.62,714.229 624.287,714.896 623.5,716.5C 621.819,718.008 619.819,719.008 617.5,719.5C 614.557,719.98 611.89,720.98 609.5,722.5C 609.167,722.5 608.833,722.5 608.5,722.5C 605.918,722.025 603.918,722.692 602.5,724.5C 590.319,724.94 578.319,724.273 566.5,722.5C 565.209,722.737 564.209,722.404 563.5,721.5C 562.01,719.72 560.01,719.054 557.5,719.5C 555.716,719.107 554.05,718.441 552.5,717.5C 551.198,715.178 549.198,713.845 546.5,713.5C 546.033,710.703 544.367,709.369 541.5,709.5C 538.145,708.145 535.811,705.811 534.5,702.5C 533.167,699.507 531.167,697.173 528.5,695.5C 527.571,694.064 526.405,692.731 525,691.5C 523.497,687.481 521.997,683.481 520.5,679.5C 520.58,676.219 519.913,673.219 518.5,670.5C 517.332,659.84 517.332,649.173 518.5,638.5C 520.213,637.365 520.88,635.698 520.5,633.5C 520.5,633.167 520.5,632.833 520.5,632.5C 523.075,630.155 524.075,627.155 523.5,623.5C 526.203,618.254 529.37,613.254 533,608.5C 535.436,605.553 538.269,603.22 541.5,601.5C 542.712,599.736 542.379,598.07 540.5,596.5C 538.257,595.526 535.924,595.192 533.5,595.5C 531.597,595.204 529.93,594.537 528.5,593.5C 526.574,591.707 524.241,590.707 521.5,590.5C 520.29,590.068 519.29,589.401 518.5,588.5C 517.313,586.025 515.313,585.025 512.5,585.5C 501.508,578.173 492.508,568.84 485.5,557.5C 485.573,555.973 484.906,554.973 483.5,554.5C 478.814,547.795 475.147,540.461 472.5,532.5C 472.982,529.169 471.982,526.503 469.5,524.5C 469.5,523.833 469.5,523.167 469.5,522.5C 469.279,519.933 468.612,517.599 467.5,515.5C 463.581,490.803 463.581,466.136 467.5,441.5C 469.213,440.365 469.88,438.698 469.5,436.5C 469.5,436.167 469.5,435.833 469.5,435.5C 471.31,432.855 472.31,429.855 472.5,426.5C 474.104,425.713 474.771,424.38 474.5,422.5C 477.186,414.386 481.519,407.386 487.5,401.5C 488.906,401.027 489.573,400.027 489.5,398.5C 489.5,397.167 490.167,396.5 491.5,396.5C 494.243,394.761 496.243,392.427 497.5,389.5C 499.544,387.781 501.544,386.114 503.5,384.5C 506.37,383.567 508.704,381.9 510.5,379.5C 512.619,377.6 514.953,375.934 517.5,374.5C 519.698,374.88 521.365,374.213 522.5,372.5C 524.181,370.992 526.181,369.992 528.5,369.5C 531.649,369.585 534.316,368.585 536.5,366.5C 538.297,365.27 540.297,364.604 542.5,364.5C 546.982,364.966 550.982,363.966 554.5,361.5C 556.5,361.5 558.5,361.5 560.5,361.5C 575.496,360.333 590.496,360.333 605.5,361.5 Z M 570.5,385.5 C 577.167,385.5 583.833,385.5 590.5,385.5C 603.044,386.222 615.71,387.222 628.5,388.5C 629.492,388.328 630.158,388.662 630.5,389.5C 630.817,432.864 630.484,476.197 629.5,519.5C 629.5,520.167 629.5,520.833 629.5,521.5C 627.339,525.173 625.672,529.173 624.5,533.5C 615.179,546.487 603.845,557.487 590.5,566.5C 588.03,566.654 586.03,567.654 584.5,569.5C 582.973,569.427 581.973,570.094 581.5,571.5C 577.511,571.682 573.844,572.682 570.5,574.5C 569.833,574.5 569.167,574.5 568.5,574.5C 561.516,575.573 554.516,575.573 547.5,574.5C 545.786,573.262 543.786,572.595 541.5,572.5C 538.682,570.928 535.682,569.594 532.5,568.5C 528.538,565.512 524.538,562.512 520.5,559.5C 518.5,556.833 516.167,554.5 513.5,552.5C 513.068,551.29 512.401,550.29 511.5,549.5C 510.396,547.611 509.063,545.945 507.5,544.5C 503.948,538.73 500.948,532.73 498.5,526.5C 498.204,524.597 497.537,522.93 496.5,521.5C 495.543,516.968 494.21,512.635 492.5,508.5C 491.819,498.716 490.819,488.716 489.5,478.5C 490.415,471.517 491.081,464.517 491.5,457.5C 492.458,455.698 493.125,453.698 493.5,451.5C 494.475,448.689 495.142,445.689 495.5,442.5C 497.008,440.819 498.008,438.819 498.5,436.5C 499.537,435.07 500.204,433.403 500.5,431.5C 503.486,426.87 506.486,422.203 509.5,417.5C 510.974,416.564 511.974,415.23 512.5,413.5C 516.631,409.87 520.631,406.037 524.5,402C 528.739,398.91 533.072,396.077 537.5,393.5C 540.063,392.912 542.396,391.912 544.5,390.5C 545.791,390.737 546.791,390.404 547.5,389.5C 550.01,389.073 552.343,388.407 554.5,387.5C 559.769,387.139 565.103,386.472 570.5,385.5 Z M 631.5,561.5 C 630.811,594.82 630.145,628.153 629.5,661.5C 629.5,662.167 629.5,662.833 629.5,663.5C 627.653,667.224 626.32,671.224 625.5,675.5C 621.505,685.16 614.838,692.16 605.5,696.5C 604.005,696.989 602.671,697.655 601.5,698.5C 600.209,698.263 599.209,698.596 598.5,699.5C 595.449,699.364 592.449,699.698 589.5,700.5C 584.61,699.345 579.944,698.678 575.5,698.5C 574.07,697.463 572.403,696.796 570.5,696.5C 568.351,695.264 566.018,694.264 563.5,693.5C 558.146,689.113 553.48,684.113 549.5,678.5C 548.494,675.79 547.494,673.124 546.5,670.5C 544.692,662.991 544.025,655.324 544.5,647.5C 545.268,645.285 545.935,642.952 546.5,640.5C 547.252,637.053 548.252,633.72 549.5,630.5C 550.401,629.71 551.068,628.71 551.5,627.5C 556.292,620.874 561.959,615.04 568.5,610C 582.84,601.499 596.84,592.499 610.5,583C 616.755,576.585 622.422,569.752 627.5,562.5C 628.315,561.571 629.148,560.571 630,559.5C 630.278,560.416 630.778,561.082 631.5,561.5 Z"/></g>
<g><path style="opacity:0.495" fill="#e6e6e6" d="M 845.5,361.5 C 836.167,361.5 826.833,361.5 817.5,361.5C 826.888,359.464 836.222,359.464 845.5,361.5 Z"/></g>
<g><path style="opacity:0.998" fill="#dedede" d="M 812.5,361.5 C 814.167,361.5 815.833,361.5 817.5,361.5C 826.833,361.5 836.167,361.5 845.5,361.5C 846.167,361.5 846.833,361.5 847.5,361.5C 850.219,362.913 853.219,363.58 856.5,363.5C 863.724,364.686 870.724,366.686 877.5,369.5C 877.414,370.496 877.748,371.329 878.5,372C 880.765,373.118 883.099,373.951 885.5,374.5C 891.565,376.231 896.565,379.564 900.5,384.5C 901.911,386.914 903.911,388.581 906.5,389.5C 917.201,399.185 925.534,410.519 931.5,423.5C 931.018,426.831 932.018,429.497 934.5,431.5C 934.975,435.084 935.975,438.417 937.5,441.5C 939.28,442.99 939.946,444.99 939.5,447.5C 940.971,458.089 941.971,468.756 942.5,479.5C 941.775,487.485 941.442,495.485 941.5,503.5C 939.783,506.845 939.116,510.511 939.5,514.5C 938.069,517.994 937.236,521.661 937,525.5C 936.392,527.066 935.558,528.4 934.5,529.5C 932.018,531.503 931.018,534.169 931.5,537.5C 930.385,540.887 928.718,543.887 926.5,546.5C 925.094,546.973 924.427,547.973 924.5,549.5C 910.662,572.341 890.995,587.674 865.5,595.5C 861.112,595.385 857.112,596.385 853.5,598.5C 852.833,598.5 852.167,598.5 851.5,598.5C 845.916,598.255 840.583,598.922 835.5,600.5C 826.183,599.613 816.85,598.946 807.5,598.5C 807.167,598.5 806.833,598.5 806.5,598.5C 803.373,595.945 799.706,594.945 795.5,595.5C 794.01,593.72 792.01,593.054 789.5,593.5C 787.447,593.598 785.78,592.931 784.5,591.5C 781.485,589.326 778.151,587.659 774.5,586.5C 766.678,583.008 760.011,578.008 754.5,571.5C 753.292,568.956 751.292,567.622 748.5,567.5C 748.5,567.167 748.5,566.833 748.5,566.5C 748.573,564.973 747.906,563.973 746.5,563.5C 738.61,555.91 732.61,546.91 728.5,536.5C 728.66,534.801 728.494,533.134 728,531.5C 727.329,530.748 726.496,530.414 725.5,530.5C 725.5,530.167 725.5,529.833 725.5,529.5C 725.209,523.317 723.542,517.65 720.5,512.5C 720.5,511.5 720.5,510.5 720.5,509.5C 718.73,493.902 718.064,478.236 718.5,462.5C 719.117,462.389 719.617,462.056 720,461.5C 720.498,458.518 720.665,455.518 720.5,452.5C 720.5,451.5 720.5,450.5 720.5,449.5C 722.472,446.916 723.472,443.916 723.5,440.5C 725.163,438.562 725.829,436.228 725.5,433.5C 725.5,433.167 725.5,432.833 725.5,432.5C 727.975,431.313 728.975,429.313 728.5,426.5C 733.613,415.001 740.113,404.334 748,394.5C 749.956,392.452 752.123,390.786 754.5,389.5C 757.089,388.581 759.089,386.914 760.5,384.5C 767.354,378.241 775.021,373.241 783.5,369.5C 785.527,369.662 787.527,369.495 789.5,369C 790.056,368.617 790.389,368.117 790.5,367.5C 792.89,365.98 795.557,364.98 798.5,364.5C 803.64,365.09 808.307,364.09 812.5,361.5 Z M 846.5,385.5 C 850.443,386.312 854.443,387.312 858.5,388.5C 865.617,391.436 872.617,394.77 879.5,398.5C 880.167,399.833 881.167,400.833 882.5,401.5C 894.151,410.836 902.818,422.503 908.5,436.5C 908.989,437.995 909.655,439.329 910.5,440.5C 911.51,443.928 912.51,447.261 913.5,450.5C 914.026,454.312 914.693,457.979 915.5,461.5C 915.5,461.833 915.5,462.167 915.5,462.5C 916.707,474.826 916.707,487.16 915.5,499.5C 914.833,502.5 914.167,505.5 913.5,508.5C 912.373,512.683 911.373,517.017 910.5,521.5C 901.781,542.551 887.447,558.551 867.5,569.5C 862.363,570.851 857.363,572.518 852.5,574.5C 852.167,574.5 851.833,574.5 851.5,574.5C 837.162,577.166 822.828,577.166 808.5,574.5C 786.697,568.417 769.697,555.75 757.5,536.5C 756.912,533.937 755.912,531.604 754.5,529.5C 754.068,528.29 753.401,527.29 752.5,526.5C 752.585,523.351 751.585,520.684 749.5,518.5C 749.025,514.916 748.025,511.583 746.5,508.5C 746.562,503.924 745.895,499.591 744.5,495.5C 744.5,485.5 744.5,475.5 744.5,465.5C 745.687,462.054 746.354,458.387 746.5,454.5C 747.664,450.989 748.664,447.323 749.5,443.5C 751.02,441.11 752.02,438.443 752.5,435.5C 753.401,434.71 754.068,433.71 754.5,432.5C 763.828,412.84 778.495,398.506 798.5,389.5C 801.067,389.279 803.401,388.612 805.5,387.5C 805.833,387.5 806.167,387.5 806.5,387.5C 819.67,384.441 833.003,383.775 846.5,385.5 Z"/></g>
<g><path style="opacity:0.615" fill="#e4e4e4" d="M 847.5,361.5 C 850.877,361.068 853.877,361.735 856.5,363.5C 853.219,363.58 850.219,362.913 847.5,361.5 Z"/></g>
<g><path style="opacity:0.595" fill="#e5e5e5" d="M 606.5,361.5 C 615.019,362.063 623.352,363.063 631.5,364.5C 622.891,364.67 614.558,363.67 606.5,361.5 Z"/></g>
<g><path style="opacity:0.595" fill="#e4e4e4" d="M 554.5,361.5 C 550.982,363.966 546.982,364.966 542.5,364.5C 546.404,363.508 550.404,362.508 554.5,361.5 Z"/></g>
<g><path style="opacity:0.619" fill="#e4e4e4" d="M 812.5,361.5 C 808.307,364.09 803.64,365.09 798.5,364.5C 802.994,363.266 807.661,362.266 812.5,361.5 Z"/></g>
<g><path style="opacity:0.642" fill="#e5e5e5" d="M 229.5,363.5 C 229.982,366.831 228.982,369.497 226.5,371.5C 226.98,368.557 227.98,365.89 229.5,363.5 Z"/></g>
<g><path style="opacity:0.939" fill="#e5e5e5" d="M 395.5,365.5 C 395.167,365.5 394.833,365.5 394.5,365.5C 386.58,365.185 378.747,365.518 371,366.5C 370.5,432.499 370.333,498.499 370.5,564.5C 369.686,562.369 369.186,560.036 369,557.5C 368.333,493.833 368.333,430.167 369,366.5C 373.246,365.201 377.746,364.534 382.5,364.5C 387.013,364.501 391.347,364.834 395.5,365.5 Z"/></g>
<g><path style="opacity:0.572" fill="#e4e4e4" d="M 655.5,364.5 C 656.756,364.461 657.756,364.961 658.5,366C 657.668,463.097 657.168,560.263 657,657.5C 656.824,661.688 656.324,665.688 655.5,669.5C 656.804,567.77 656.804,466.104 655.5,364.5 Z"/></g>
<g><path style="opacity:0.999" fill="#dddddd" d="M 394.5,365.5 C 393.837,431.175 394.503,496.509 396.5,561.5C 398.363,566.036 401.363,569.703 405.5,572.5C 405.611,573.117 405.944,573.617 406.5,574C 409.833,574.667 413.167,574.667 416.5,574C 417.056,573.617 417.389,573.117 417.5,572.5C 419.707,571.092 421.707,569.425 423.5,567.5C 425.685,567.704 427.685,568.37 429.5,569.5C 435.064,572.723 440.064,576.723 444.5,581.5C 440.582,588.292 434.915,592.959 427.5,595.5C 421.815,595.408 416.315,596.075 411,597.5C 405.856,596.679 400.689,596.012 395.5,595.5C 385.317,591.984 377.983,585.317 373.5,575.5C 373.946,572.99 373.28,570.99 371.5,569.5C 370.549,568.081 370.216,566.415 370.5,564.5C 370.333,498.499 370.5,432.499 371,366.5C 378.747,365.518 386.58,365.185 394.5,365.5 Z"/></g>
<g><path style="opacity:0.991" fill="#e4e4e4" d="M 394.5,365.5 C 394.833,365.5 395.167,365.5 395.5,365.5C 396.496,430.762 396.83,496.096 396.5,561.5C 394.503,496.509 393.837,431.175 394.5,365.5 Z"/></g>
<g><path style="opacity:0.592" fill="#e4e4e4" d="M 536.5,366.5 C 534.316,368.585 531.649,369.585 528.5,369.5C 530.792,367.733 533.458,366.733 536.5,366.5 Z"/></g>
<g><path style="opacity:0.653" fill="#e4e4e4" d="M 790.5,367.5 C 790.389,368.117 790.056,368.617 789.5,369C 787.527,369.495 785.527,369.662 783.5,369.5C 785.515,368.076 787.848,367.41 790.5,367.5 Z"/></g>
<g><path style="opacity:0.141" fill="#e6e6e6" d="M 204.5,371.5 C 204.34,373.153 203.674,374.486 202.5,375.5C 202.229,373.62 202.896,372.287 204.5,371.5 Z"/></g>
<g><path style="opacity:0.607" fill="#e4e4e4" d="M 877.5,369.5 C 880.437,370.803 883.103,372.47 885.5,374.5C 883.099,373.951 880.765,373.118 878.5,372C 877.748,371.329 877.414,370.496 877.5,369.5 Z"/></g>
<g><path style="opacity:0.476" fill="#e6e6e6" d="M 522.5,372.5 C 521.365,374.213 519.698,374.88 517.5,374.5C 518.93,373.463 520.597,372.796 522.5,372.5 Z"/></g>
<g><path style="opacity:0.951" fill="#e5e5e5" d="M 224.5,375.5 C 224.5,377.5 224.5,379.5 224.5,381.5C 239.17,381.333 253.837,381.5 268.5,382C 269.056,382.383 269.389,382.883 269.5,383.5C 254.163,383.667 238.83,383.5 223.5,383C 223.043,382.586 222.709,382.086 222.5,381.5C 223.05,379.343 223.717,377.343 224.5,375.5 Z"/></g>
<g><path style="opacity:0.524" fill="#e4e4e4" d="M 715.5,381.5 C 714.92,383.749 713.587,385.415 711.5,386.5C 712.08,384.251 713.413,382.585 715.5,381.5 Z"/></g>
<g><path style="opacity:0.571" fill="#e4e4e4" d="M 510.5,379.5 C 508.704,381.9 506.37,383.567 503.5,384.5C 505.296,382.1 507.63,380.433 510.5,379.5 Z"/></g>
<g><path style="opacity:0.663" fill="#e5e5e5" d="M 846.5,385.5 C 833.003,383.775 819.67,384.441 806.5,387.5C 809.707,385.646 813.373,384.48 817.5,384C 826.833,383.333 836.167,383.333 845.5,384C 846.056,384.383 846.389,384.883 846.5,385.5 Z"/></g>
<g><path style="opacity:0.528" fill="#e3e3e3" d="M 900.5,384.5 C 903.089,385.419 905.089,387.086 906.5,389.5C 903.911,388.581 901.911,386.914 900.5,384.5 Z"/></g>
<g><path style="opacity:0.555" fill="#e5e5e5" d="M 570.5,385.5 C 565.103,386.472 559.769,387.139 554.5,387.5C 554.611,386.883 554.944,386.383 555.5,386C 560.489,385.501 565.489,385.334 570.5,385.5 Z"/></g>
<g><path style="opacity:0.576" fill="#e5e5e5" d="M 590.5,385.5 C 600.172,385.334 609.839,385.5 619.5,386C 622.695,386.181 625.695,386.681 628.5,387.5C 628.5,387.833 628.5,388.167 628.5,388.5C 615.71,387.222 603.044,386.222 590.5,385.5 Z"/></g>
<g><path style="opacity:0.542" fill="#e5e5e5" d="M 846.5,385.5 C 851.114,384.768 855.114,385.768 858.5,388.5C 854.443,387.312 850.443,386.312 846.5,385.5 Z"/></g>
<g><path style="opacity:0.619" fill="#e3e3e3" d="M 554.5,387.5 C 552.343,388.407 550.01,389.073 547.5,389.5C 547.611,388.883 547.944,388.383 548.5,388C 550.473,387.505 552.473,387.338 554.5,387.5 Z"/></g>
<g><path style="opacity:0.986" fill="#e1e1e1" d="M 628.5,388.5 C 628.5,388.167 628.5,387.833 628.5,387.5C 629.822,387.33 630.989,387.663 632,388.5C 632.831,430.669 632.665,472.669 631.5,514.5C 631.832,472.663 631.499,430.997 630.5,389.5C 630.158,388.662 629.492,388.328 628.5,388.5 Z"/></g>
<g><path style="opacity:0.643" fill="#e4e4e4" d="M 805.5,387.5 C 803.401,388.612 801.067,389.279 798.5,389.5C 800.438,387.837 802.772,387.171 805.5,387.5 Z"/></g>
<g><path style="opacity:0.571" fill="#e4e4e4" d="M 760.5,384.5 C 759.089,386.914 757.089,388.581 754.5,389.5C 755.911,387.086 757.911,385.419 760.5,384.5 Z"/></g>
<g><path style="opacity:0.141" fill="#e8e8e8" d="M 630.5,389.5 C 631.499,430.997 631.832,472.663 631.5,514.5C 631.598,516.553 630.931,518.22 629.5,519.5C 630.484,476.197 630.817,432.864 630.5,389.5 Z"/></g>
<g><path style="opacity:0.968" fill="#e5e5e5" d="M 336.5,358.5 C 335.865,369.698 335.199,380.864 334.5,392C 319.833,392.667 305.167,392.667 290.5,392C 289.584,391.722 288.918,391.222 288.5,390.5C 303.833,390.5 319.167,390.5 334.5,390.5C 334.334,380.161 334.5,369.828 335,359.5C 335.383,358.944 335.883,358.611 336.5,358.5 Z"/></g>
<g><path style="opacity:0.485" fill="#e5e5e5" d="M 544.5,390.5 C 542.396,391.912 540.063,392.912 537.5,393.5C 539.185,391.182 541.519,390.182 544.5,390.5 Z"/></g>
<g><path style="opacity:0.714" fill="#e3e3e3" d="M 497.5,389.5 C 496.243,392.427 494.243,394.761 491.5,396.5C 492.757,393.573 494.757,391.239 497.5,389.5 Z"/></g>
<g><path style="opacity:0.429" fill="#e6e6e6" d="M 879.5,398.5 C 881.5,398.5 882.5,399.5 882.5,401.5C 881.167,400.833 880.167,399.833 879.5,398.5 Z"/></g>
<g><path style="opacity:0.573" fill="#e5e5e5" d="M 489.5,398.5 C 489.573,400.027 488.906,401.027 487.5,401.5C 487.427,399.973 488.094,398.973 489.5,398.5 Z"/></g>
<g><path style="opacity:0.589" fill="#e4e4e4" d="M 440.5,414.5 C 440.5,413.5 440.5,412.5 440.5,411.5C 437.373,412.391 434.373,412.725 431.5,412.5C 430.334,422.817 430.168,433.151 431,443.5C 432.232,440.7 432.899,437.7 433,434.5C 433.383,433.944 433.883,433.611 434.5,433.5C 434.136,439.124 432.803,444.457 430.5,449.5C 429.501,436.517 429.168,423.517 429.5,410.5C 433.884,410.174 438.217,410.508 442.5,411.5C 442.058,412.739 441.391,413.739 440.5,414.5 Z"/></g>
<g><path style="opacity:0.996" fill="#dddddd" d="M 440.5,414.5 C 440.737,415.791 440.404,416.791 439.5,417.5C 438.883,417.611 438.383,417.944 438,418.5C 437.505,420.473 437.338,422.473 437.5,424.5C 435.72,425.99 435.054,427.99 435.5,430.5C 435.737,431.791 435.404,432.791 434.5,433.5C 433.883,433.611 433.383,433.944 433,434.5C 432.899,437.7 432.232,440.7 431,443.5C 430.168,433.151 430.334,422.817 431.5,412.5C 434.373,412.725 437.373,412.391 440.5,411.5C 440.5,412.5 440.5,413.5 440.5,414.5 Z"/></g>
<g><path style="opacity:0.961" fill="#e1e1e1" d="M 693.5,411.5 C 695.09,411.628 696.423,412.295 697.5,413.5C 695.756,417.246 693.923,420.912 692,424.5C 691.002,419.856 691.502,415.523 693.5,411.5 Z"/></g>
<g><path style="opacity:1" fill="#d8d8d8" d="M 693.5,413.5 C 695.337,413.639 695.67,414.306 694.5,415.5C 693.702,415.043 693.369,414.376 693.5,413.5 Z"/></g>
<g><path style="opacity:0.286" fill="#e5e5e5" d="M 512.5,413.5 C 511.974,415.23 510.974,416.564 509.5,417.5C 509.554,415.368 510.554,414.035 512.5,413.5 Z"/></g>
<g><path style="opacity:0.571" fill="#e4e4e4" d="M 439.5,417.5 C 439.073,420.01 438.407,422.343 437.5,424.5C 437.338,422.473 437.505,420.473 438,418.5C 438.383,417.944 438.883,417.611 439.5,417.5 Z"/></g>
<g><path style="opacity:0.681" fill="#e4e4e4" d="M 846.5,420.5 C 835.5,419.167 824.5,419.167 813.5,420.5C 818.657,419.304 823.99,418.304 829.5,417.5C 835.354,418.236 841.02,419.236 846.5,420.5 Z"/></g>
<g><path style="opacity:0.999" fill="#dddddd" d="M 846.5,420.5 C 848.579,420.971 850.579,421.637 852.5,422.5C 852.973,423.906 853.973,424.573 855.5,424.5C 861.344,426.341 865.677,430.008 868.5,435.5C 868.337,437.857 868.503,440.19 869,442.5C 869.383,443.056 869.883,443.389 870.5,443.5C 870.799,445.604 870.466,447.604 869.5,449.5C 841.304,448.17 813.137,448.17 785,449.5C 784.536,448.906 784.369,448.239 784.5,447.5C 789.051,436.283 796.717,427.95 807.5,422.5C 810.01,422.946 812.01,422.28 813.5,420.5C 824.5,419.167 835.5,419.167 846.5,420.5 Z"/></g>
<g><path style="opacity:0.999" fill="#dddddd" d="M 530.5,447.5 C 534.004,438.996 539.671,432.329 547.5,427.5C 549.544,426.492 551.544,425.492 553.5,424.5C 553.973,423.094 554.973,422.427 556.5,422.5C 569.746,420.696 583.08,420.029 596.5,420.5C 596.5,429.833 596.5,439.167 596.5,448.5C 575.121,448.178 553.788,448.511 532.5,449.5C 531.478,449.145 530.811,448.478 530.5,447.5 Z"/></g>
<g><path style="opacity:0.643" fill="#e5e5e5" d="M 813.5,420.5 C 812.01,422.28 810.01,422.946 807.5,422.5C 809.214,421.262 811.214,420.595 813.5,420.5 Z"/></g>
<g><path style="opacity:0.141" fill="#e7e7e7" d="M 852.5,422.5 C 854.027,422.427 855.027,423.094 855.5,424.5C 853.973,424.573 852.973,423.906 852.5,422.5 Z"/></g>
<g><path style="opacity:0.429" fill="#e6e6e6" d="M 474.5,422.5 C 474.771,424.38 474.104,425.713 472.5,426.5C 472.66,424.847 473.326,423.514 474.5,422.5 Z"/></g>
<g><path style="opacity:0.632" fill="#e3e3e3" d="M 931.5,423.5 C 933.02,425.89 934.02,428.557 934.5,431.5C 932.018,429.497 931.018,426.831 931.5,423.5 Z"/></g>
<g><path style="opacity:0.286" fill="#e6e6e6" d="M 437.5,424.5 C 437.125,426.698 436.458,428.698 435.5,430.5C 435.054,427.99 435.72,425.99 437.5,424.5 Z"/></g>
<g><path style="opacity:0.535" fill="#e4e4e4" d="M 553.5,424.5 C 551.544,425.492 549.544,426.492 547.5,427.5C 548.687,425.025 550.687,424.025 553.5,424.5 Z"/></g>
<g><path style="opacity:0.618" fill="#e4e4e4" d="M 472.5,426.5 C 472.31,429.855 471.31,432.855 469.5,435.5C 469.69,432.145 470.69,429.145 472.5,426.5 Z"/></g>
<g><path style="opacity:0.599" fill="#e4e4e4" d="M 728.5,426.5 C 728.975,429.313 727.975,431.313 725.5,432.5C 726.508,430.456 727.508,428.456 728.5,426.5 Z"/></g>
<g><path style="opacity:0.476" fill="#e6e6e6" d="M 500.5,431.5 C 500.204,433.403 499.537,435.07 498.5,436.5C 498.12,434.302 498.787,432.635 500.5,431.5 Z"/></g>
<g><path style="opacity:0.429" fill="#e6e6e6" d="M 754.5,432.5 C 754.068,433.71 753.401,434.71 752.5,435.5C 752.285,433.821 752.952,432.821 754.5,432.5 Z"/></g>
<g><path style="opacity:0.642" fill="#e5e5e5" d="M 934.5,431.5 C 936.68,434.381 937.68,437.714 937.5,441.5C 935.975,438.417 934.975,435.084 934.5,431.5 Z"/></g>
<g><path style="opacity:0.524" fill="#e5e5e5" d="M 725.5,433.5 C 725.829,436.228 725.163,438.562 723.5,440.5C 723.721,437.933 724.388,435.599 725.5,433.5 Z"/></g>
<g><path style="opacity:0.698" fill="#e4e4e4" d="M 868.5,435.5 C 870.04,437.838 870.706,440.505 870.5,443.5C 869.883,443.389 869.383,443.056 869,442.5C 868.503,440.19 868.337,437.857 868.5,435.5 Z"/></g>
<g><path style="opacity:0.429" fill="#e6e6e6" d="M 908.5,436.5 C 910.176,437.183 910.843,438.517 910.5,440.5C 909.655,439.329 908.989,437.995 908.5,436.5 Z"/></g>
<g><path style="opacity:0.628" fill="#e5e5e5" d="M 752.5,435.5 C 752.02,438.443 751.02,441.11 749.5,443.5C 749.018,440.169 750.018,437.503 752.5,435.5 Z"/></g>
<g><path style="opacity:0.429" fill="#e6e6e6" d="M 469.5,436.5 C 469.88,438.698 469.213,440.365 467.5,441.5C 467.796,439.597 468.463,437.93 469.5,436.5 Z"/></g>
<g><path style="opacity:0.574" fill="#e3e3e3" d="M 265.5,417.5 C 266.492,425.316 266.826,433.316 266.5,441.5C 226.833,441.5 187.167,441.5 147.5,441.5C 186.663,440.501 225.996,440.168 265.5,440.5C 265.5,432.833 265.5,425.167 265.5,417.5 Z"/></g>
<g><path style="opacity:0.433" fill="#e4e4e4" d="M 147.5,441.5 C 146.838,492.931 146.171,544.264 145.5,595.5C 144.838,543.822 145.504,492.489 147.5,441.5 Z"/></g>
<g><path style="opacity:0.556" fill="#e4e4e4" d="M 495.5,442.5 C 495.142,445.689 494.475,448.689 493.5,451.5C 493.336,448.813 493.503,446.146 494,443.5C 494.383,442.944 494.883,442.611 495.5,442.5 Z"/></g>
<g><path style="opacity:0.548" fill="#e4e4e4" d="M 723.5,440.5 C 723.472,443.916 722.472,446.916 720.5,449.5C 720.928,446.215 721.928,443.215 723.5,440.5 Z"/></g>
<g><path style="opacity:0.631" fill="#e4e4e4" d="M 334.5,410.5 C 335.66,423.327 335.827,436.327 335,449.5C 323.247,450.488 311.414,450.821 299.5,450.5C 299.5,436.833 299.5,423.167 299.5,409.5C 311.345,409.172 323.012,409.505 334.5,410.5 Z"/></g>
<g><path style="opacity:1" fill="#dddddd" d="M 334.5,410.5 C 334.667,423.171 334.5,435.838 334,448.5C 333.586,448.957 333.086,449.291 332.5,449.5C 322.167,448.167 311.833,448.167 301.5,449.5C 300.501,436.517 300.168,423.517 300.5,410.5C 311.833,410.5 323.167,410.5 334.5,410.5 Z"/></g>
<g><path style="opacity:0.639" fill="#e4e4e4" d="M 529.5,458.5 C 529.662,456.473 529.495,454.473 529,452.5C 528.722,453.416 528.222,454.082 527.5,454.5C 528.088,451.937 529.088,449.604 530.5,447.5C 530.811,448.478 531.478,449.145 532.5,449.5C 553.788,448.511 575.121,448.178 596.5,448.5C 596.5,439.167 596.5,429.833 596.5,420.5C 583.08,420.029 569.746,420.696 556.5,422.5C 558.954,421.379 561.621,420.546 564.5,420C 575.5,419.333 586.5,419.333 597.5,420C 597.957,420.414 598.291,420.914 598.5,421.5C 597.693,430.786 597.193,440.119 597,449.5C 574.909,450.494 552.742,450.827 530.5,450.5C 530.806,453.385 530.473,456.052 529.5,458.5 Z"/></g>
<g><path style="opacity:0.601" fill="#e4e4e4" d="M 749.5,443.5 C 748.664,447.323 747.664,450.989 746.5,454.5C 746.126,450.353 747.126,446.686 749.5,443.5 Z"/></g>
<g><path style="opacity:0.644" fill="#e4e4e4" d="M 870.5,443.5 C 871.468,445.607 871.802,447.941 871.5,450.5C 842.167,450.5 812.833,450.5 783.5,450.5C 783.263,449.209 783.596,448.209 784.5,447.5C 784.369,448.239 784.536,448.906 785,449.5C 813.137,448.17 841.304,448.17 869.5,449.5C 870.466,447.604 870.799,445.604 870.5,443.5 Z"/></g>
<g><path style="opacity:0.584" fill="#e4e4e4" d="M 939.5,447.5 C 944.285,466.166 944.951,484.833 941.5,503.5C 941.442,495.485 941.775,487.485 942.5,479.5C 941.971,468.756 940.971,458.089 939.5,447.5 Z"/></g>
<g><path style="opacity:0.429" fill="#e5e5e5" d="M 913.5,450.5 C 914.117,450.611 914.617,450.944 915,451.5C 915.498,454.817 915.665,458.15 915.5,461.5C 914.693,457.979 914.026,454.312 913.5,450.5 Z"/></g>
<g><path style="opacity:1" fill="#dddddd" d="M 529.5,458.5 C 528.248,466.359 528.248,474.359 529.5,482.5C 551.833,482.5 574.167,482.5 596.5,482.5C 597.053,494.309 596.386,505.976 594.5,517.5C 592.823,519.54 591.156,521.54 589.5,523.5C 570.787,523.808 552.12,523.474 533.5,522.5C 532.227,520.287 531.227,517.954 530.5,515.5C 529.578,509.843 527.911,504.51 525.5,499.5C 525.5,499.167 525.5,498.833 525.5,498.5C 524.291,486.162 524.291,473.829 525.5,461.5C 525.721,458.933 526.388,456.599 527.5,454.5C 528.222,454.082 528.722,453.416 529,452.5C 529.495,454.473 529.662,456.473 529.5,458.5 Z"/></g>
<g><path style="opacity:0.607" fill="#e5e5e5" d="M 720.5,452.5 C 720.665,455.518 720.498,458.518 720,461.5C 719.617,462.056 719.117,462.389 718.5,462.5C 718.753,458.96 719.419,455.627 720.5,452.5 Z"/></g>
<g><path style="opacity:0.556" fill="#e5e5e5" d="M 746.5,454.5 C 746.354,458.387 745.687,462.054 744.5,465.5C 744.335,462.482 744.502,459.482 745,456.5C 745.278,455.584 745.778,454.918 746.5,454.5 Z"/></g>
<g><path style="opacity:0.613" fill="#e4e4e4" d="M 467.5,441.5 C 463.581,466.136 463.581,490.803 467.5,515.5C 460.973,490.867 460.973,466.201 467.5,441.5 Z"/></g>
<g><path style="opacity:0.539" fill="#e4e4e4" d="M 718.5,462.5 C 718.064,478.236 718.73,493.902 720.5,509.5C 719.693,506.704 718.693,503.87 717.5,501C 717.212,488.139 717.545,475.306 718.5,462.5 Z"/></g>
<g><path style="opacity:0.95" fill="#e4e4e4" d="M 529.5,458.5 C 529.334,465.175 529.5,471.842 530,478.5C 530.667,479.833 531.667,480.833 533,481.5C 554.137,480.182 575.304,480.182 596.5,481.5C 596.5,481.833 596.5,482.167 596.5,482.5C 574.167,482.5 551.833,482.5 529.5,482.5C 528.248,474.359 528.248,466.359 529.5,458.5 Z"/></g>
<g><path style="opacity:0.739" fill="#e4e4e4" d="M 181.5,480.5 C 232.168,480.333 282.834,480.5 333.5,481C 335.473,495.256 336.14,509.756 335.5,524.5C 283.829,524.833 232.162,524.5 180.5,523.5C 180.167,522.833 179.833,522.167 179.5,521.5C 180.167,507.804 180.833,494.137 181.5,480.5 Z"/></g>
<g><path style="opacity:0.999" fill="#dedede" d="M 779.5,481.5 C 811.47,482.827 843.47,482.827 875.5,481.5C 876.659,492.993 876.826,504.659 876,516.5C 874.629,519.266 872.796,521.599 870.5,523.5C 843.456,523.816 816.456,523.483 789.5,522.5C 785.245,517.99 782.578,512.657 781.5,506.5C 780.864,500.318 779.864,494.318 778.5,488.5C 776.914,485.784 777.247,483.45 779.5,481.5 Z"/></g>
<g><path style="opacity:1" fill="#e4e4e4" d="M 779.5,481.5 C 811.5,480.167 843.5,480.167 875.5,481.5C 843.47,482.827 811.47,482.827 779.5,481.5 Z"/></g>
<g><path style="opacity:1" fill="#dddddd" d="M 181.5,482.5 C 232.168,482.333 282.834,482.5 333.5,483C 334.158,489.589 334.491,496.256 334.5,503C 334.491,509.744 334.158,516.411 333.5,523C 282.834,523.5 232.168,523.667 181.5,523.5C 181.5,509.833 181.5,496.167 181.5,482.5 Z"/></g>
<g><path style="opacity:0.423" fill="#e5e5e5" d="M 596.5,481.5 C 597.659,491.992 597.825,502.659 597,513.5C 596.392,515.066 595.558,516.4 594.5,517.5C 596.386,505.976 597.053,494.309 596.5,482.5C 596.5,482.167 596.5,481.833 596.5,481.5 Z"/></g>
<g><path style="opacity:0.572" fill="#e4e4e4" d="M 915.5,462.5 C 917.438,467.359 918.438,472.526 918.5,478C 917.993,485.377 916.993,492.543 915.5,499.5C 916.707,487.16 916.707,474.826 915.5,462.5 Z"/></g>
<g><path style="opacity:0.603" fill="#e5e5e5" d="M 525.5,461.5 C 524.291,473.829 524.291,486.162 525.5,498.5C 522.896,486.161 522.896,473.827 525.5,461.5 Z"/></g>
<g><path style="opacity:0.613" fill="#e4e4e4" d="M 491.5,457.5 C 491.081,464.517 490.415,471.517 489.5,478.5C 490.819,488.716 491.819,498.716 492.5,508.5C 490.606,499.019 489.273,489.186 488.5,479C 488.561,471.567 489.561,464.401 491.5,457.5 Z"/></g>
<g><path style="opacity:0.635" fill="#e4e4e4" d="M 778.5,488.5 C 779.864,494.318 780.864,500.318 781.5,506.5C 779.062,500.871 778.062,494.871 778.5,488.5 Z"/></g>
<g><path style="opacity:0.502" fill="#e5e5e5" d="M 429.5,495.5 C 430.966,505.071 432.633,514.738 434.5,524.5C 432.833,524.5 431.167,524.5 429.5,524.5C 429.5,514.833 429.5,505.167 429.5,495.5 Z"/></g>
<g><path style="opacity:0.586" fill="#e5e5e5" d="M 744.5,495.5 C 745.895,499.591 746.562,503.924 746.5,508.5C 744.946,504.433 744.28,500.1 744.5,495.5 Z"/></g>
<g><path style="opacity:0.489" fill="#e5e5e5" d="M 941.5,503.5 C 941.192,507.36 940.525,511.026 939.5,514.5C 939.116,510.511 939.783,506.845 941.5,503.5 Z"/></g>
<g><path style="opacity:0.655" fill="#e4e4e4" d="M 913.5,508.5 C 913.665,511.85 913.498,515.183 913,518.5C 912.148,519.571 911.315,520.571 910.5,521.5C 911.373,517.017 912.373,512.683 913.5,508.5 Z"/></g>
<g><path style="opacity:0.618" fill="#e4e4e4" d="M 525.5,499.5 C 527.911,504.51 529.578,509.843 530.5,515.5C 528.091,510.509 526.424,505.175 525.5,499.5 Z"/></g>
<g><path style="opacity:1" fill="#dddddd" d="M 430.5,513.5 C 431.117,513.611 431.617,513.944 432,514.5C 432.821,517.554 432.655,520.554 431.5,523.5C 430.513,520.232 430.18,516.898 430.5,513.5 Z"/></g>
<g><path style="opacity:0.5" fill="#e4e4e4" d="M 467.5,515.5 C 468.612,517.599 469.279,519.933 469.5,522.5C 467.837,520.562 467.171,518.228 467.5,515.5 Z"/></g>
<g><path style="opacity:0.628" fill="#e5e5e5" d="M 749.5,518.5 C 751.585,520.684 752.585,523.351 752.5,526.5C 750.62,524.245 749.62,521.578 749.5,518.5 Z"/></g>
<g><path style="opacity:0.572" fill="#e5e5e5" d="M 720.5,512.5 C 723.542,517.65 725.209,523.317 725.5,529.5C 723.696,523.966 722.029,518.299 720.5,512.5 Z"/></g>
<g><path style="opacity:0.429" fill="#e6e6e6" d="M 496.5,521.5 C 497.537,522.93 498.204,524.597 498.5,526.5C 496.787,525.365 496.12,523.698 496.5,521.5 Z"/></g>
<g><path style="opacity:0.58" fill="#e3e3e3" d="M 533.5,522.5 C 552.12,523.474 570.787,523.808 589.5,523.5C 571.338,524.662 553.005,524.829 534.5,524C 533.944,523.617 533.611,523.117 533.5,522.5 Z"/></g>
<g><path style="opacity:0.571" fill="#e5e5e5" d="M 629.5,521.5 C 628.941,525.952 627.275,529.952 624.5,533.5C 625.672,529.173 627.339,525.173 629.5,521.5 Z"/></g>
<g><path style="opacity:0.576" fill="#e3e3e3" d="M 789.5,522.5 C 816.456,523.483 843.456,523.816 870.5,523.5C 844.764,524.171 818.931,524.838 793,525.5C 791.482,524.837 790.315,523.837 789.5,522.5 Z"/></g>
<g><path style="opacity:0.535" fill="#e4e4e4" d="M 469.5,524.5 C 471.982,526.503 472.982,529.169 472.5,532.5C 471.506,529.876 470.506,527.21 469.5,524.5 Z"/></g>
<g><path style="opacity:0.539" fill="#e4e4e4" d="M 934.5,529.5 C 933.494,532.21 932.494,534.876 931.5,537.5C 931.018,534.169 932.018,531.503 934.5,529.5 Z"/></g>
<g><path style="opacity:0.524" fill="#e5e5e5" d="M 725.5,530.5 C 726.496,530.414 727.329,530.748 728,531.5C 728.494,533.134 728.66,534.801 728.5,536.5C 727.799,534.412 726.799,532.412 725.5,530.5 Z"/></g>
<g><path style="opacity:0.643" fill="#e4e4e4" d="M 754.5,529.5 C 755.912,531.604 756.912,533.937 757.5,536.5C 755.182,534.815 754.182,532.481 754.5,529.5 Z"/></g>
<g><path style="opacity:0.6" fill="#e5e5e5" d="M 507.5,544.5 C 509.063,545.945 510.396,547.611 511.5,549.5C 508.703,549.033 507.369,547.367 507.5,544.5 Z"/></g>
<g><path style="opacity:0.141" fill="#e6e6e6" d="M 926.5,546.5 C 926.573,548.027 925.906,549.027 924.5,549.5C 924.427,547.973 925.094,546.973 926.5,546.5 Z"/></g>
<g><path style="opacity:0.643" fill="#e5e5e5" d="M 513.5,552.5 C 516.167,554.5 518.5,556.833 520.5,559.5C 517.167,558.167 514.833,555.833 513.5,552.5 Z"/></g>
<g><path style="opacity:0.429" fill="#e5e5e5" d="M 483.5,554.5 C 484.906,554.973 485.573,555.973 485.5,557.5C 484.094,557.027 483.427,556.027 483.5,554.5 Z"/></g>
<g><path style="opacity:0.572" fill="#e4e4e4" d="M 631.5,561.5 C 630.778,561.082 630.278,560.416 630,559.5C 629.148,560.571 628.315,561.571 627.5,562.5C 627.284,560.319 628.117,558.653 630,557.5C 631.188,558.563 631.688,559.897 631.5,561.5 Z"/></g>
<g><path style="opacity:0.431" fill="#e4e4e4" d="M 336.5,567.5 C 335.717,565.657 335.05,563.657 334.5,561.5C 283.504,560.5 232.504,560.167 181.5,560.5C 181.667,573.504 181.5,586.504 181,599.5C 180.844,602.191 180.011,604.524 178.5,606.5C 179.045,603.187 179.545,599.854 180,596.5C 180.388,584.063 180.555,571.73 180.5,559.5C 232.168,559.333 283.834,559.5 335.5,560C 336.435,562.381 336.768,564.881 336.5,567.5 Z"/></g>
<g><path style="opacity:0.492" fill="#e5e5e5" d="M 692.5,560.5 C 695.64,559.359 698.973,559.192 702.5,560C 703.056,560.383 703.389,560.883 703.5,561.5C 699.901,560.656 696.234,560.323 692.5,560.5 Z"/></g>
<g><path style="opacity:0.999" fill="#dedede" d="M 336.5,567.5 C 336.5,567.833 336.5,568.167 336.5,568.5C 335.802,573.717 336.802,578.384 339.5,582.5C 339.5,582.833 339.5,583.167 339.5,583.5C 339.229,585.38 339.896,586.713 341.5,587.5C 343.345,590.333 345.011,593.333 346.5,596.5C 297.835,598.197 248.835,599.197 199.5,599.5C 196.958,599.414 194.458,599.08 192,598.5C 190.72,598.613 189.887,599.28 189.5,600.5C 190.548,601.548 191.548,602.548 192.5,603.5C 193.73,605.297 194.396,607.297 194.5,609.5C 194.018,612.831 195.018,615.497 197.5,617.5C 197.5,617.833 197.5,618.167 197.5,618.5C 197.604,622.207 198.604,625.54 200.5,628.5C 202.104,629.287 202.771,630.62 202.5,632.5C 203.403,636.889 205.069,640.889 207.5,644.5C 207.707,647.241 208.707,649.574 210.5,651.5C 211.674,652.514 212.34,653.847 212.5,655.5C 212.025,658.313 213.025,660.313 215.5,661.5C 215.285,663.179 215.952,664.179 217.5,664.5C 225.436,678.43 233.77,692.097 242.5,705.5C 242.845,708.198 244.178,710.198 246.5,711.5C 258.223,726.063 270.89,739.896 284.5,753C 293.831,761.321 303.497,769.154 313.5,776.5C 314.802,778.822 316.802,780.155 319.5,780.5C 319.973,781.906 320.973,782.573 322.5,782.5C 331.1,787.29 339.433,792.29 347.5,797.5C 348.287,799.104 349.62,799.771 351.5,799.5C 352.687,801.975 354.687,802.975 357.5,802.5C 361.354,803.93 365.021,805.597 368.5,807.5C 369.687,809.975 371.687,810.975 374.5,810.5C 376.403,810.796 378.07,811.463 379.5,812.5C 380.058,813.79 381.058,814.623 382.5,815C 386.041,816.44 389.708,817.274 393.5,817.5C 396.251,819.975 399.584,820.975 403.5,820.5C 404.99,822.28 406.99,822.946 409.5,822.5C 410.791,822.263 411.791,822.596 412.5,823.5C 413.077,825.652 414.244,825.985 416,824.5C 416.799,806.309 416.299,788.309 414.5,770.5C 414.667,733.832 414.5,697.165 414,660.5C 413.25,659.874 412.416,659.374 411.5,659C 381.664,658.169 351.997,658.336 322.5,659.5C 321.502,689.662 321.169,719.995 321.5,750.5C 317.619,749.226 313.952,747.393 310.5,745C 294.418,732.92 279.585,719.42 266,704.5C 263.49,700.805 260.99,697.138 258.5,693.5C 258.155,690.802 256.822,688.802 254.5,687.5C 249.811,682.297 245.644,676.63 242,670.5C 239.548,665.932 237.382,661.265 235.5,656.5C 235.245,654.033 234.245,652.033 232.5,650.5C 230.049,647.26 228.382,643.593 227.5,639.5C 227.448,636.654 226.448,634.32 224.5,632.5C 224.976,628.622 223.976,625.288 221.5,622.5C 221.33,621.178 221.663,620.011 222.5,619C 269.833,618.333 317.167,618.333 364.5,619C 366.025,620.009 367.692,620.509 369.5,620.5C 374.027,622.595 378.361,624.928 382.5,627.5C 385.627,630.055 389.294,631.055 393.5,630.5C 393.611,631.117 393.944,631.617 394.5,632C 397.817,632.498 401.15,632.665 404.5,632.5C 408.5,632.5 412.5,632.5 416.5,632.5C 419.187,632.664 421.854,632.497 424.5,632C 425.056,631.617 425.389,631.117 425.5,630.5C 430.312,631.035 434.645,630.035 438.5,627.5C 441.86,625.82 445.193,624.153 448.5,622.5C 449.5,622.5 450.5,622.5 451.5,622.5C 451.833,705.836 451.5,789.169 450.5,872.5C 447.916,871.607 445.249,871.274 442.5,871.5C 440.562,869.837 438.228,869.171 435.5,869.5C 435.167,869.5 434.833,869.5 434.5,869.5C 431.314,867.126 427.647,866.126 423.5,866.5C 421.22,864.777 418.553,864.111 415.5,864.5C 415.167,864.5 414.833,864.5 414.5,864.5C 412.155,861.925 409.155,860.925 405.5,861.5C 404.01,859.72 402.01,859.054 399.5,859.5C 397.044,857.132 394.044,856.132 390.5,856.5C 381.824,853.92 373.491,850.586 365.5,846.5C 363.574,844.707 361.241,843.707 358.5,843.5C 354.407,842.618 350.74,840.951 347.5,838.5C 345.211,836.613 342.545,835.279 339.5,834.5C 336.984,834.245 334.65,833.411 332.5,832C 329.593,830.391 326.927,828.558 324.5,826.5C 322.97,824.654 320.97,823.654 318.5,823.5C 312.995,821.251 307.995,818.251 303.5,814.5C 302.198,812.178 300.198,810.845 297.5,810.5C 290.125,806.815 283.459,802.149 277.5,796.5C 275.704,794.1 273.37,792.433 270.5,791.5C 264.562,787.894 259.229,783.561 254.5,778.5C 252.761,775.757 250.427,773.757 247.5,772.5C 232.13,759.126 218.463,744.126 206.5,727.5C 205.753,724.638 204.086,722.638 201.5,721.5C 195.407,713.647 190.074,705.314 185.5,696.5C 185.13,693.733 183.796,691.733 181.5,690.5C 177.93,684.364 174.597,678.031 171.5,671.5C 171.293,668.759 170.293,666.426 168.5,664.5C 166.992,662.819 165.992,660.819 165.5,658.5C 165.715,656.821 165.048,655.821 163.5,655.5C 163.5,655.167 163.5,654.833 163.5,654.5C 163.982,651.169 162.982,648.503 160.5,646.5C 159.463,645.07 158.796,643.403 158.5,641.5C 158.585,638.351 157.585,635.684 155.5,633.5C 155.281,632.325 155.614,631.325 156.5,630.5C 158.396,629.725 160.063,628.725 161.5,627.5C 169.754,622.581 175.421,615.581 178.5,606.5C 180.011,604.524 180.844,602.191 181,599.5C 181.5,586.504 181.667,573.504 181.5,560.5C 232.504,560.167 283.504,560.5 334.5,561.5C 335.05,563.657 335.717,565.657 336.5,567.5 Z"/></g>
<g><path style="opacity:0.65" fill="#e4e4e4" d="M 692.5,560.5 C 692.179,572.414 692.512,584.247 693.5,596C 704.998,595.199 716.498,595.365 728,596.5C 728.464,595.906 728.631,595.239 728.5,594.5C 729.404,595.209 729.737,596.209 729.5,597.5C 716.833,597.5 704.167,597.5 691.5,597.5C 691.171,584.989 691.505,572.655 692.5,560.5 Z"/></g>
<g><path style="opacity:0.998" fill="#dddddd" d="M 692.5,560.5 C 696.234,560.323 699.901,560.656 703.5,561.5C 710.134,573.76 718.468,584.76 728.5,594.5C 728.631,595.239 728.464,595.906 728,596.5C 716.498,595.365 704.998,595.199 693.5,596C 692.512,584.247 692.179,572.414 692.5,560.5 Z"/></g>
<g><path style="opacity:0.968" fill="#e3e3e3" d="M 631.5,561.5 C 632.664,592.331 632.831,623.331 632,654.5C 631.302,657.004 630.469,659.337 629.5,661.5C 630.145,628.153 630.811,594.82 631.5,561.5 Z"/></g>
<g><path style="opacity:0.429" fill="#e6e6e6" d="M 746.5,563.5 C 747.906,563.973 748.573,564.973 748.5,566.5C 747.094,566.027 746.427,565.027 746.5,563.5 Z"/></g>
<g><path style="opacity:0.607" fill="#e3e3e3" d="M 423.5,567.5 C 426.08,565.984 428.08,566.651 429.5,569.5C 427.685,568.37 425.685,567.704 423.5,567.5 Z"/></g>
<g><path style="opacity:0.518" fill="#e4e4e4" d="M 748.5,567.5 C 751.292,567.622 753.292,568.956 754.5,571.5C 752.223,570.551 750.223,569.218 748.5,567.5 Z"/></g>
<g><path style="opacity:0.571" fill="#e5e5e5" d="M 590.5,566.5 C 588.97,568.346 586.97,569.346 584.5,569.5C 586.03,567.654 588.03,566.654 590.5,566.5 Z"/></g>
<g><path style="opacity:0.714" fill="#e3e3e3" d="M 371.5,569.5 C 373.28,570.99 373.946,572.99 373.5,575.5C 371.926,573.898 371.259,571.898 371.5,569.5 Z"/></g>
<g><path style="opacity:0.429" fill="#e4e4e4" d="M 532.5,568.5 C 535.682,569.594 538.682,570.928 541.5,572.5C 537.764,572.459 534.764,571.126 532.5,568.5 Z"/></g>
<g><path style="opacity:0.524" fill="#e5e5e5" d="M 405.5,572.5 C 409.5,573.833 413.5,573.833 417.5,572.5C 417.389,573.117 417.056,573.617 416.5,574C 413.167,574.667 409.833,574.667 406.5,574C 405.944,573.617 405.611,573.117 405.5,572.5 Z"/></g>
<g><path style="opacity:0.571" fill="#e5e5e5" d="M 541.5,572.5 C 543.786,572.595 545.786,573.262 547.5,574.5C 544.99,574.946 542.99,574.28 541.5,572.5 Z"/></g>
<g><path style="opacity:0.5" fill="#e5e5e5" d="M 581.5,571.5 C 578.156,573.318 574.489,574.318 570.5,574.5C 573.844,572.682 577.511,571.682 581.5,571.5 Z"/></g>
<g><path style="opacity:0.625" fill="#e4e4e4" d="M 867.5,569.5 C 867.047,570.458 866.381,571.292 865.5,572C 861.206,573.143 856.873,573.977 852.5,574.5C 857.363,572.518 862.363,570.851 867.5,569.5 Z"/></g>
<g><path style="opacity:0.571" fill="#e5e5e5" d="M 336.5,568.5 C 337.334,573.1 338.334,577.766 339.5,582.5C 336.802,578.384 335.802,573.717 336.5,568.5 Z"/></g>
<g><path style="opacity:0.542" fill="#e4e4e4" d="M 547.5,574.5 C 554.516,575.573 561.516,575.573 568.5,574.5C 567.828,575.267 566.995,575.934 566,576.5C 559.747,576.824 553.58,576.157 547.5,574.5 Z"/></g>
<g><path style="opacity:0.608" fill="#e4e4e4" d="M 808.5,574.5 C 822.828,577.166 837.162,577.166 851.5,574.5C 851.389,575.117 851.056,575.617 850.5,576C 839.206,577.492 827.872,577.826 816.5,577C 813.621,576.454 810.954,575.621 808.5,574.5 Z"/></g>
<g><path style="opacity:0.429" fill="#e5e5e5" d="M 339.5,583.5 C 340.674,584.514 341.34,585.847 341.5,587.5C 339.896,586.713 339.229,585.38 339.5,583.5 Z"/></g>
<g><path style="opacity:0.62" fill="#e4e4e4" d="M 512.5,585.5 C 515.313,585.025 517.313,586.025 518.5,588.5C 516.456,587.492 514.456,586.492 512.5,585.5 Z"/></g>
<g><path style="opacity:0.5" fill="#e5e5e5" d="M 774.5,586.5 C 778.151,587.659 781.485,589.326 784.5,591.5C 780.58,590.873 777.247,589.207 774.5,586.5 Z"/></g>
<g><path style="opacity:0.571" fill="#e4e4e4" d="M 521.5,590.5 C 524.241,590.707 526.574,591.707 528.5,593.5C 525.759,593.293 523.426,592.293 521.5,590.5 Z"/></g>
<g><path style="opacity:0.595" fill="#e4e4e4" d="M 789.5,593.5 C 792.01,593.054 794.01,593.72 795.5,595.5C 793.214,595.405 791.214,594.738 789.5,593.5 Z"/></g>
<g><path style="opacity:0.536" fill="#e5e5e5" d="M 533.5,595.5 C 535.924,595.192 538.257,595.526 540.5,596.5C 542.379,598.07 542.712,599.736 541.5,601.5C 540.227,597.551 537.56,595.551 533.5,595.5 Z"/></g>
<g><path style="opacity:0.686" fill="#e4e4e4" d="M 795.5,595.5 C 799.706,594.945 803.373,595.945 806.5,598.5C 802.573,598.074 798.907,597.074 795.5,595.5 Z"/></g>
<g><path style="opacity:0.625" fill="#e5e5e5" d="M 865.5,595.5 C 861.888,597.615 857.888,598.615 853.5,598.5C 857.112,596.385 861.112,595.385 865.5,595.5 Z"/></g>
<g><path style="opacity:0.543" fill="#e3e3e3" d="M 395.5,595.5 C 400.689,596.012 405.856,596.679 411,597.5C 416.315,596.075 421.815,595.408 427.5,595.5C 416.819,599.462 406.153,599.462 395.5,595.5 Z"/></g>
<g><path style="opacity:0.75" fill="#e4e4e4" d="M 346.5,596.5 C 347.404,597.209 347.737,598.209 347.5,599.5C 296.171,600.222 244.838,600.722 193.5,601C 192.748,601.671 192.414,602.504 192.5,603.5C 191.548,602.548 190.548,601.548 189.5,600.5C 189.887,599.28 190.72,598.613 192,598.5C 194.458,599.08 196.958,599.414 199.5,599.5C 248.835,599.197 297.835,598.197 346.5,596.5 Z"/></g>
<g><path style="opacity:0.607" fill="#e5e5e5" d="M 807.5,598.5 C 816.85,598.946 826.183,599.613 835.5,600.5C 834.207,601.158 832.707,601.492 831,601.5C 822.945,601.08 815.112,600.08 807.5,598.5 Z"/></g>
<g><path style="opacity:0.619" fill="#e4e4e4" d="M 851.5,598.5 C 846.447,600.26 841.114,600.927 835.5,600.5C 840.583,598.922 845.916,598.255 851.5,598.5 Z"/></g>
<g><path style="opacity:0.982" fill="#e1e1e1" d="M 486.5,609.5 C 488.818,609.657 490.484,610.824 491.5,613C 490.241,615.868 488.908,618.701 487.5,621.5C 486.643,620.264 485.977,618.931 485.5,617.5C 486.393,614.916 486.726,612.249 486.5,609.5 Z"/></g>
<g><path style="opacity:0.571" fill="#e4e4e4" d="M 194.5,609.5 C 195.488,612.076 196.488,614.743 197.5,617.5C 195.018,615.497 194.018,612.831 194.5,609.5 Z"/></g>
<g><path style="opacity:0.297" fill="#e6e6e6" d="M 369.5,620.5 C 367.692,620.509 366.025,620.009 364.5,619C 317.167,618.333 269.833,618.333 222.5,619C 221.663,620.011 221.33,621.178 221.5,622.5C 220.661,621.359 219.994,620.026 219.5,618.5C 268.163,617.333 316.83,617.167 365.5,618C 367.066,618.608 368.4,619.442 369.5,620.5 Z"/></g>
<g><path style="opacity:0.42" fill="#e5e5e5" d="M 765.5,620.5 C 763.25,620.819 761.25,620.319 759.5,619C 737.5,618.333 715.5,618.333 693.5,619C 692.824,631.803 692.158,644.637 691.5,657.5C 693.078,658.298 694.744,658.798 696.5,659C 697.252,659.671 697.586,660.504 697.5,661.5C 695.521,659.832 693.188,659.166 690.5,659.5C 691.063,645.608 691.729,631.775 692.5,618C 715.167,617.333 737.833,617.333 760.5,618C 762.315,618.757 763.981,619.59 765.5,620.5 Z"/></g>
<g><path style="opacity:0.999" fill="#dddddd" d="M 765.5,620.5 C 765.833,620.5 766.167,620.5 766.5,620.5C 766.821,622.048 767.821,622.715 769.5,622.5C 771.503,624.982 774.169,625.982 777.5,625.5C 780.454,626.428 783.454,627.261 786.5,628C 787.056,628.383 787.389,628.883 787.5,629.5C 788.275,631.388 788.275,633.388 787.5,635.5C 786.326,636.514 785.66,637.847 785.5,639.5C 785.737,640.791 785.404,641.791 784.5,642.5C 782.896,643.287 782.229,644.62 782.5,646.5C 782.771,648.38 782.104,649.713 780.5,650.5C 778.992,652.181 777.992,654.181 777.5,656.5C 777.008,658.819 776.008,660.819 774.5,662.5C 773.094,662.973 772.427,663.973 772.5,665.5C 771.921,668.331 770.588,670.664 768.5,672.5C 766.331,674.34 764.998,676.674 764.5,679.5C 763.89,681.434 762.89,683.101 761.5,684.5C 760.094,684.973 759.427,685.973 759.5,687.5C 750.331,702.963 739.331,717.129 726.5,730C 722.289,733.385 717.955,736.551 713.5,739.5C 711.973,739.427 710.973,740.094 710.5,741.5C 710.5,742.167 710.167,742.5 709.5,742.5C 707.181,742.992 705.181,743.992 703.5,745.5C 703.027,746.906 702.027,747.573 700.5,747.5C 698.836,719.015 697.836,690.348 697.5,661.5C 697.586,660.504 697.252,659.671 696.5,659C 694.744,658.798 693.078,658.298 691.5,657.5C 692.158,644.637 692.824,631.803 693.5,619C 715.5,618.333 737.5,618.333 759.5,619C 761.25,620.319 763.25,620.819 765.5,620.5 Z"/></g>
<g><path style="opacity:0.628" fill="#e4e4e4" d="M 197.5,618.5 C 199.605,621.408 200.605,624.742 200.5,628.5C 198.604,625.54 197.604,622.207 197.5,618.5 Z"/></g>
<g><path style="opacity:0.982" fill="#e4e4e4" d="M 442.5,871.5 C 445.249,871.274 447.916,871.607 450.5,872.5C 451.5,789.169 451.833,705.836 451.5,622.5C 450.5,622.5 449.5,622.5 448.5,622.5C 449.78,621.069 451.447,620.402 453.5,620.5C 453.5,705.167 453.5,789.833 453.5,874.5C 449.762,873.387 446.096,872.387 442.5,871.5 Z"/></g>
<g><path style="opacity:0.571" fill="#e6e6e6" d="M 766.5,620.5 C 767.71,620.932 768.71,621.599 769.5,622.5C 767.821,622.715 766.821,622.048 766.5,620.5 Z"/></g>
<g><path style="opacity:0.584" fill="#e4e4e4" d="M 221.5,622.5 C 223.976,625.288 224.976,628.622 224.5,632.5C 223.13,629.381 222.13,626.048 221.5,622.5 Z"/></g>
<g><path style="opacity:0.642" fill="#e4e4e4" d="M 769.5,622.5 C 772.443,622.98 775.11,623.98 777.5,625.5C 774.169,625.982 771.503,624.982 769.5,622.5 Z"/></g>
<g><path style="opacity:0.571" fill="#e4e4e4" d="M 523.5,623.5 C 524.075,627.155 523.075,630.155 520.5,632.5C 521.629,629.491 522.629,626.491 523.5,623.5 Z"/></g>
<g><path style="opacity:0.5" fill="#e6e6e6" d="M 551.5,627.5 C 551.068,628.71 550.401,629.71 549.5,630.5C 549.285,628.821 549.952,627.821 551.5,627.5 Z"/></g>
<g><path style="opacity:0.571" fill="#e4e4e4" d="M 161.5,627.5 C 160.063,628.725 158.396,629.725 156.5,630.5C 155.614,631.325 155.281,632.325 155.5,633.5C 154.733,632.828 154.066,631.995 153.5,631C 155.818,629.007 158.484,627.841 161.5,627.5 Z"/></g>
<g><path style="opacity:0.657" fill="#e4e4e4" d="M 382.5,627.5 C 386.323,628.336 389.989,629.336 393.5,630.5C 389.294,631.055 385.627,630.055 382.5,627.5 Z"/></g>
<g><path style="opacity:0.548" fill="#e5e5e5" d="M 438.5,627.5 C 434.645,630.035 430.312,631.035 425.5,630.5C 429.755,629.598 434.089,628.598 438.5,627.5 Z"/></g>
<g><path style="opacity:0.571" fill="#e5e5e5" d="M 425.5,630.5 C 425.389,631.117 425.056,631.617 424.5,632C 421.854,632.497 419.187,632.664 416.5,632.5C 419.311,631.525 422.311,630.858 425.5,630.5 Z"/></g>
<g><path style="opacity:0.543" fill="#e6e6e6" d="M 393.5,630.5 C 397.337,630.931 401.003,631.598 404.5,632.5C 401.15,632.665 397.817,632.498 394.5,632C 393.944,631.617 393.611,631.117 393.5,630.5 Z"/></g>
<g><path style="opacity:0.524" fill="#e4e4e4" d="M 202.5,632.5 C 204.931,636.111 206.597,640.111 207.5,644.5C 205.069,640.889 203.403,636.889 202.5,632.5 Z"/></g>
<g><path style="opacity:0.486" fill="#e4e4e4" d="M 224.5,632.5 C 226.448,634.32 227.448,636.654 227.5,639.5C 225.935,637.491 224.935,635.157 224.5,632.5 Z"/></g>
<g><path style="opacity:0.5" fill="#e5e5e5" d="M 787.5,629.5 C 788.756,629.461 789.756,629.961 790.5,631C 789.601,632.652 788.601,634.152 787.5,635.5C 788.275,633.388 788.275,631.388 787.5,629.5 Z"/></g>
<g><path style="opacity:0.996" fill="#dedede" d="M 594.5,661.5 C 594.573,663.027 593.906,664.027 592.5,664.5C 589.284,664.984 585.951,664.984 582.5,664.5C 577.914,660.497 576.581,655.497 578.5,649.5C 580.346,647.97 581.346,645.97 581.5,643.5C 584.309,639.077 588.309,636.077 593.5,634.5C 594.496,634.586 595.329,634.252 596,633.5C 596.585,642.89 596.085,652.223 594.5,661.5 Z"/></g>
<g><path style="opacity:0.523" fill="#e5e5e5" d="M 594.5,661.5 C 596.085,652.223 596.585,642.89 596,633.5C 595.329,634.252 594.496,634.586 593.5,634.5C 594.287,632.896 595.62,632.229 597.5,632.5C 597.666,639.175 597.5,645.842 597,652.5C 596.594,655.742 595.761,658.742 594.5,661.5 Z"/></g>
<g><path style="opacity:0.638" fill="#e4e4e4" d="M 853.5,635.5 C 853.53,634.503 853.03,633.836 852,633.5C 849.865,634.127 847.698,634.627 845.5,635C 834.839,635.5 824.172,635.667 813.5,635.5C 814.172,634.733 815.005,634.066 816,633.5C 828.806,634.646 841.639,634.312 854.5,632.5C 854.737,633.791 854.404,634.791 853.5,635.5 Z"/></g>
<g><path style="opacity:0.999" fill="#dedede" d="M 853.5,635.5 C 853.5,635.833 853.5,636.167 853.5,636.5C 850.828,638.391 849.828,641.058 850.5,644.5C 850.02,647.443 849.02,650.11 847.5,652.5C 845.744,653.552 845.077,655.219 845.5,657.5C 843.896,658.287 843.229,659.62 843.5,661.5C 841.069,665.111 839.403,669.111 838.5,673.5C 830.98,690.873 821.647,707.207 810.5,722.5C 808,725.494 806,728.827 804.5,732.5C 803.876,734.754 802.543,736.421 800.5,737.5C 798.738,738.262 797.738,739.596 797.5,741.5C 777.512,769.821 753.179,793.821 724.5,813.5C 722.62,813.229 721.287,813.896 720.5,815.5C 717.724,818.55 714.391,820.883 710.5,822.5C 708.152,822.592 706.486,823.592 705.5,825.5C 700.657,829.337 695.323,832.337 689.5,834.5C 687.973,834.427 686.973,835.094 686.5,836.5C 684.62,836.229 683.287,836.896 682.5,838.5C 679.584,840.922 676.251,842.588 672.5,843.5C 669.687,843.025 667.687,844.025 666.5,846.5C 664.302,846.12 662.635,846.787 661.5,848.5C 660.791,849.404 659.791,849.737 658.5,849.5C 656.62,849.229 655.287,849.896 654.5,851.5C 650.742,851.395 647.408,852.395 644.5,854.5C 643.22,855.931 641.553,856.598 639.5,856.5C 634.041,857.209 629.041,858.875 624.5,861.5C 622.473,861.338 620.473,861.505 618.5,862C 617.944,862.383 617.611,862.883 617.5,863.5C 616.432,864.434 615.099,864.768 613.5,864.5C 610.772,864.171 608.438,864.837 606.5,866.5C 603.482,866.335 600.482,866.502 597.5,867C 596.058,867.377 595.058,868.21 594.5,869.5C 592.833,869.5 591.167,869.5 589.5,869.5C 582.94,870.78 576.273,871.613 569.5,872C 567.148,872.24 565.148,873.073 563.5,874.5C 562.833,874.5 562.167,874.5 561.5,874.5C 561.5,835.5 561.5,796.5 561.5,757.5C 567.615,759.25 573.948,759.916 580.5,759.5C 588.792,759.377 596.959,759.377 605,759.5C 605.5,777.83 605.667,796.164 605.5,814.5C 605.5,815.5 605.5,816.5 605.5,817.5C 609.557,816.312 613.557,815.312 617.5,814.5C 619.102,812.926 621.102,812.259 623.5,812.5C 629.315,812.052 634.648,810.385 639.5,807.5C 640.93,806.463 642.597,805.796 644.5,805.5C 647.491,805.834 649.824,804.834 651.5,802.5C 653.89,800.98 656.557,799.98 659.5,799.5C 663.689,798.779 667.355,797.113 670.5,794.5C 672.819,794.008 674.819,793.008 676.5,791.5C 681.331,788.25 686.331,785.25 691.5,782.5C 694.326,782.002 696.66,780.669 698.5,778.5C 701.475,775.677 704.808,773.344 708.5,771.5C 711.337,771.316 713.337,769.982 714.5,767.5C 728.862,755.503 742.528,742.836 755.5,729.5C 758.243,727.761 760.243,725.427 761.5,722.5C 762.8,719.568 764.8,717.234 767.5,715.5C 769.587,714.415 770.92,712.749 771.5,710.5C 773.326,708.853 774.66,706.853 775.5,704.5C 778.117,699.886 781.117,695.553 784.5,691.5C 788.251,687.005 791.251,682.005 793.5,676.5C 795.539,675.089 796.539,673.089 796.5,670.5C 797.68,667.46 799.347,664.794 801.5,662.5C 803.293,660.574 804.293,658.241 804.5,655.5C 804.935,652.843 805.935,650.509 807.5,648.5C 809.536,646.794 810.536,644.461 810.5,641.5C 810.461,638.911 811.461,636.911 813.5,635.5C 824.172,635.667 834.839,635.5 845.5,635C 847.698,634.627 849.865,634.127 852,633.5C 853.03,633.836 853.53,634.503 853.5,635.5 Z"/></g>
<g><path style="opacity:0.5" fill="#e5e5e5" d="M 520.5,633.5 C 520.88,635.698 520.213,637.365 518.5,638.5C 518.796,636.597 519.463,634.93 520.5,633.5 Z"/></g>
<g><path style="opacity:0.572" fill="#e3e3e3" d="M 155.5,633.5 C 157.585,635.684 158.585,638.351 158.5,641.5C 156.98,639.11 155.98,636.443 155.5,633.5 Z"/></g>
<g><path style="opacity:0.607" fill="#e4e4e4" d="M 853.5,636.5 C 852.488,639.257 851.488,641.924 850.5,644.5C 849.828,641.058 850.828,638.391 853.5,636.5 Z"/></g>
<g><path style="opacity:0.286" fill="#e6e6e6" d="M 787.5,635.5 C 787.771,637.38 787.104,638.713 785.5,639.5C 785.66,637.847 786.326,636.514 787.5,635.5 Z"/></g>
<g><path style="opacity:0.177" fill="#e7e7e7" d="M 546.5,640.5 C 545.935,642.952 545.268,645.285 544.5,647.5C 543.99,644.612 544.656,642.279 546.5,640.5 Z"/></g>
<g><path style="opacity:0.543" fill="#e4e4e4" d="M 581.5,643.5 C 581.346,645.97 580.346,647.97 578.5,649.5C 578.654,647.03 579.654,645.03 581.5,643.5 Z"/></g>
<g><path style="opacity:0.141" fill="#e6e6e6" d="M 784.5,642.5 C 784.34,644.153 783.674,645.486 782.5,646.5C 782.229,644.62 782.896,643.287 784.5,642.5 Z"/></g>
<g><path style="opacity:0.642" fill="#e3e3e3" d="M 810.5,641.5 C 810.536,644.461 809.536,646.794 807.5,648.5C 807.935,645.843 808.935,643.509 810.5,641.5 Z"/></g>
<g><path style="opacity:0.643" fill="#e4e4e4" d="M 207.5,644.5 C 209.293,646.426 210.293,648.759 210.5,651.5C 208.707,649.574 207.707,647.241 207.5,644.5 Z"/></g>
<g><path style="opacity:0.548" fill="#e4e4e4" d="M 160.5,646.5 C 162.982,648.503 163.982,651.169 163.5,654.5C 162.506,651.876 161.506,649.21 160.5,646.5 Z"/></g>
<g><path style="opacity:0.515" fill="#e4e4e4" d="M 232.5,650.5 C 234.245,652.033 235.245,654.033 235.5,656.5C 233.755,654.967 232.755,652.967 232.5,650.5 Z"/></g>
<g><path style="opacity:0.476" fill="#e4e4e4" d="M 518.5,638.5 C 517.332,649.173 517.332,659.84 518.5,670.5C 517.859,665.696 516.859,660.862 515.5,656C 516.856,650.125 517.856,644.292 518.5,638.5 Z"/></g>
<g><path style="opacity:0.571" fill="#e5e5e5" d="M 780.5,650.5 C 780.539,653.089 779.539,655.089 777.5,656.5C 777.992,654.181 778.992,652.181 780.5,650.5 Z"/></g>
<g><path style="opacity:0.643" fill="#e4e4e4" d="M 847.5,652.5 C 847.598,654.553 846.931,656.22 845.5,657.5C 845.077,655.219 845.744,653.552 847.5,652.5 Z"/></g>
<g><path style="opacity:0.429" fill="#e6e6e6" d="M 163.5,655.5 C 165.048,655.821 165.715,656.821 165.5,658.5C 164.599,657.71 163.932,656.71 163.5,655.5 Z"/></g>
<g><path style="opacity:0.485" fill="#e5e5e5" d="M 212.5,655.5 C 213.492,657.456 214.492,659.456 215.5,661.5C 213.025,660.313 212.025,658.313 212.5,655.5 Z"/></g>
<g><path style="opacity:0.571" fill="#e4e4e4" d="M 804.5,655.5 C 804.293,658.241 803.293,660.574 801.5,662.5C 801.707,659.759 802.707,657.426 804.5,655.5 Z"/></g>
<g><path style="opacity:0.141" fill="#e6e6e6" d="M 845.5,657.5 C 845.34,659.153 844.674,660.486 843.5,661.5C 843.229,659.62 843.896,658.287 845.5,657.5 Z"/></g>
<g><path style="opacity:0.628" fill="#e4e4e4" d="M 322.5,659.5 C 351.997,658.336 381.664,658.169 411.5,659C 412.416,659.374 413.25,659.874 414,660.5C 414.5,697.165 414.667,733.832 414.5,770.5C 413.667,733.998 413.001,697.332 412.5,660.5C 382.896,660.807 353.229,660.473 323.5,659.5C 323.167,659.5 322.833,659.5 322.5,659.5 Z"/></g>
<g><path style="opacity:0.714" fill="#e1e1e1" d="M 697.5,661.5 C 697.836,690.348 698.836,719.015 700.5,747.5C 699.791,748.404 698.791,748.737 697.5,748.5C 697.5,719.5 697.5,690.5 697.5,661.5 Z"/></g>
<g><path style="opacity:0.429" fill="#e6e6e6" d="M 215.5,661.5 C 216.401,662.29 217.068,663.29 217.5,664.5C 215.952,664.179 215.285,663.179 215.5,661.5 Z"/></g>
<g><path style="opacity:0.291" fill="#e6e6e6" d="M 322.5,659.5 C 322.833,659.5 323.167,659.5 323.5,659.5C 322.841,689.931 322.174,720.264 321.5,750.5C 321.169,719.995 321.502,689.662 322.5,659.5 Z"/></g>
<g><path style="opacity:0.141" fill="#e7e7e7" d="M 774.5,662.5 C 774.573,664.027 773.906,665.027 772.5,665.5C 772.427,663.973 773.094,662.973 774.5,662.5 Z"/></g>
<g><path style="opacity:0.543" fill="#e4e4e4" d="M 168.5,664.5 C 170.293,666.426 171.293,668.759 171.5,671.5C 169.707,669.574 168.707,667.241 168.5,664.5 Z"/></g>
<g><path style="opacity:0.603" fill="#e5e5e5" d="M 582.5,664.5 C 585.951,664.984 589.284,664.984 592.5,664.5C 591.848,665.725 590.681,666.392 589,666.5C 586.516,666.503 584.349,665.837 582.5,664.5 Z"/></g>
<g><path style="opacity:0.632" fill="#e5e5e5" d="M 629.5,663.5 C 629.534,668.069 628.201,672.069 625.5,675.5C 626.32,671.224 627.653,667.224 629.5,663.5 Z"/></g>
<g><path style="opacity:0.571" fill="#e4e4e4" d="M 843.5,661.5 C 842.597,665.889 840.931,669.889 838.5,673.5C 839.403,669.111 841.069,665.111 843.5,661.5 Z"/></g>
<g><path style="opacity:0.524" fill="#e4e4e4" d="M 518.5,670.5 C 519.913,673.219 520.58,676.219 520.5,679.5C 519.087,676.781 518.42,673.781 518.5,670.5 Z"/></g>
<g><path style="opacity:0.5" fill="#e4e4e4" d="M 546.5,670.5 C 547.494,673.124 548.494,675.79 549.5,678.5C 547.018,676.497 546.018,673.831 546.5,670.5 Z"/></g>
<g><path style="opacity:0.543" fill="#e4e4e4" d="M 768.5,672.5 C 767.921,675.331 766.588,677.664 764.5,679.5C 764.998,676.674 766.331,674.34 768.5,672.5 Z"/></g>
<g><path style="opacity:0.573" fill="#e4e4e4" d="M 796.5,670.5 C 796.539,673.089 795.539,675.089 793.5,676.5C 793.992,674.181 794.992,672.181 796.5,670.5 Z"/></g>
<g><path style="opacity:0.535" fill="#e5e5e5" d="M 793.5,676.5 C 791.251,682.005 788.251,687.005 784.5,691.5C 786.749,685.995 789.749,680.995 793.5,676.5 Z"/></g>
<g><path style="opacity:0.141" fill="#e6e6e6" d="M 761.5,684.5 C 761.573,686.027 760.906,687.027 759.5,687.5C 759.427,685.973 760.094,684.973 761.5,684.5 Z"/></g>
<g><path style="opacity:0.535" fill="#e5e5e5" d="M 254.5,687.5 C 256.822,688.802 258.155,690.802 258.5,693.5C 256.674,691.853 255.34,689.853 254.5,687.5 Z"/></g>
<g><path style="opacity:0.62" fill="#e5e5e5" d="M 488.5,690.5 C 487.094,690.973 486.427,691.973 486.5,693.5C 485.903,693.265 485.57,692.765 485.5,692C 486,690.5 486.5,689 487,687.5C 488.039,688.244 488.539,689.244 488.5,690.5 Z"/></g>
<g><path style="opacity:0.999" fill="#dedede" d="M 488.5,690.5 C 490.123,694.427 491.79,698.427 493.5,702.5C 493.12,704.698 493.787,706.365 495.5,707.5C 498.497,712.159 501.497,716.825 504.5,721.5C 506.117,724.784 508.45,727.451 511.5,729.5C 516.782,734.146 522.448,738.312 528.5,742C 529.167,743.333 529.833,744.667 530.5,746C 529.169,788.137 529.169,830.304 530.5,872.5C 530.291,873.086 529.957,873.586 529.5,874C 522.333,874.167 515.167,874.333 508,874.5C 500.34,874.653 492.84,874.153 485.5,873C 486.498,813.238 486.831,753.405 486.5,693.5C 486.427,691.973 487.094,690.973 488.5,690.5 Z"/></g>
<g><path style="opacity:0.643" fill="#e4e4e4" d="M 181.5,690.5 C 183.796,691.733 185.13,693.733 185.5,696.5C 183.684,694.882 182.351,692.882 181.5,690.5 Z"/></g>
<g><path style="opacity:0.141" fill="#e7e7e7" d="M 647.5,691.5 C 647.34,693.153 646.674,694.486 645.5,695.5C 645.229,693.62 645.896,692.287 647.5,691.5 Z"/></g>
<g><path style="opacity:0.524" fill="#e5e5e5" d="M 563.5,693.5 C 566.018,694.264 568.351,695.264 570.5,696.5C 567.509,696.834 565.176,695.834 563.5,693.5 Z"/></g>
<g><path style="opacity:0.571" fill="#e4e4e4" d="M 528.5,695.5 C 531.167,697.173 533.167,699.507 534.5,702.5C 531.833,700.827 529.833,698.493 528.5,695.5 Z"/></g>
<g><path style="opacity:0.429" fill="#e6e6e6" d="M 605.5,696.5 C 604.817,698.176 603.483,698.843 601.5,698.5C 602.671,697.655 604.005,696.989 605.5,696.5 Z"/></g>
<g><path style="opacity:0.679" fill="#e4e4e4" d="M 575.5,698.5 C 579.944,698.678 584.61,699.345 589.5,700.5C 592.449,699.698 595.449,699.364 598.5,699.5C 598.389,700.117 598.056,700.617 597.5,701C 592.5,701.667 587.5,701.667 582.5,701C 579.896,700.61 577.562,699.776 575.5,698.5 Z"/></g>
<g><path style="opacity:0.524" fill="#e5e5e5" d="M 493.5,702.5 C 494.537,703.93 495.204,705.597 495.5,707.5C 493.787,706.365 493.12,704.698 493.5,702.5 Z"/></g>
<g><path style="opacity:0.607" fill="#e4e4e4" d="M 242.5,705.5 C 244.326,707.147 245.66,709.147 246.5,711.5C 244.178,710.198 242.845,708.198 242.5,705.5 Z"/></g>
<g><path style="opacity:0.573" fill="#e4e4e4" d="M 775.5,704.5 C 774.66,706.853 773.326,708.853 771.5,710.5C 771.845,707.802 773.178,705.802 775.5,704.5 Z"/></g>
<g><path style="opacity:0.5" fill="#e4e4e4" d="M 541.5,709.5 C 544.367,709.369 546.033,710.703 546.5,713.5C 544.809,712.136 543.142,710.803 541.5,709.5 Z"/></g>
<g><path style="opacity:0.714" fill="#e4e4e4" d="M 771.5,710.5 C 770.92,712.749 769.587,714.415 767.5,715.5C 768.08,713.251 769.413,711.585 771.5,710.5 Z"/></g>
<g><path style="opacity:0.643" fill="#e4e4e4" d="M 546.5,713.5 C 549.198,713.845 551.198,715.178 552.5,717.5C 550.147,716.66 548.147,715.326 546.5,713.5 Z"/></g>
<g><path style="opacity:0.141" fill="#e6e6e6" d="M 627.5,714.5 C 626.486,715.674 625.153,716.34 623.5,716.5C 624.287,714.896 625.62,714.229 627.5,714.5 Z"/></g>
<g><path style="opacity:0.592" fill="#e4e4e4" d="M 557.5,719.5 C 560.01,719.054 562.01,719.72 563.5,721.5C 561.214,721.405 559.214,720.738 557.5,719.5 Z"/></g>
<g><path style="opacity:0.476" fill="#e4e4e4" d="M 617.5,719.5 C 615.316,721.585 612.649,722.585 609.5,722.5C 611.89,720.98 614.557,719.98 617.5,719.5 Z"/></g>
<g><path style="opacity:0.643" fill="#e3e3e3" d="M 201.5,721.5 C 204.086,722.638 205.753,724.638 206.5,727.5C 204.367,725.909 202.701,723.909 201.5,721.5 Z"/></g>
<g><path style="opacity:0.548" fill="#e4e4e4" d="M 504.5,721.5 C 507.52,723.523 509.854,726.19 511.5,729.5C 508.45,727.451 506.117,724.784 504.5,721.5 Z"/></g>
<g><path style="opacity:0.571" fill="#e4e4e4" d="M 608.5,722.5 C 606.698,723.458 604.698,724.125 602.5,724.5C 603.918,722.692 605.918,722.025 608.5,722.5 Z"/></g>
<g><path style="opacity:0.548" fill="#e4e4e4" d="M 761.5,722.5 C 760.243,725.427 758.243,727.761 755.5,729.5C 756.757,726.573 758.757,724.239 761.5,722.5 Z"/></g>
<g><path style="opacity:0.59" fill="#e4e4e4" d="M 566.5,722.5 C 578.319,724.273 590.319,724.94 602.5,724.5C 597.433,725.188 592.267,725.855 587,726.5C 579.901,726.071 573.068,724.737 566.5,722.5 Z"/></g>
<g><path style="opacity:0.535" fill="#e4e4e4" d="M 810.5,722.5 C 809.521,726.461 807.521,729.794 804.5,732.5C 806,728.827 808,725.494 810.5,722.5 Z"/></g>
<g><path style="opacity:0.141" fill="#e6e6e6" d="M 800.5,737.5 C 800.262,739.404 799.262,740.738 797.5,741.5C 797.738,739.596 798.738,738.262 800.5,737.5 Z"/></g>
<g><path style="opacity:0.141" fill="#e7e7e7" d="M 713.5,739.5 C 713.027,740.906 712.027,741.573 710.5,741.5C 710.973,740.094 711.973,739.427 713.5,739.5 Z"/></g>
<g><path style="opacity:0.571" fill="#e3e3e3" d="M 709.5,742.5 C 708.089,744.539 706.089,745.539 703.5,745.5C 705.181,743.992 707.181,742.992 709.5,742.5 Z"/></g>
<g><path style="opacity:0.434" fill="#e4e4e4" d="M 580.5,759.5 C 573.948,759.916 567.615,759.25 561.5,757.5C 561.5,796.5 561.5,835.5 561.5,874.5C 560.501,835.337 560.168,796.004 560.5,756.5C 567.295,757.507 573.962,758.507 580.5,759.5 Z"/></g>
<g><path style="opacity:0.572" fill="#e4e4e4" d="M 714.5,767.5 C 713.337,769.982 711.337,771.316 708.5,771.5C 710.205,769.808 712.205,768.475 714.5,767.5 Z"/></g>
<g><path style="opacity:0.72" fill="#e4e4e4" d="M 414.5,770.5 C 416.299,788.309 416.799,806.309 416,824.5C 414.244,825.985 413.077,825.652 412.5,823.5C 413.5,823.5 414.5,823.5 415.5,823.5C 414.541,805.868 414.207,788.201 414.5,770.5 Z"/></g>
<g><path style="opacity:0.571" fill="#e5e5e5" d="M 247.5,772.5 C 250.427,773.757 252.761,775.757 254.5,778.5C 251.573,777.243 249.239,775.243 247.5,772.5 Z"/></g>
<g><path style="opacity:0.571" fill="#e4e4e4" d="M 313.5,776.5 C 315.853,777.34 317.853,778.674 319.5,780.5C 316.802,780.155 314.802,778.822 313.5,776.5 Z"/></g>
<g><path style="opacity:0.141" fill="#e6e6e6" d="M 319.5,780.5 C 321.027,780.427 322.027,781.094 322.5,782.5C 320.973,782.573 319.973,781.906 319.5,780.5 Z"/></g>
<g><path style="opacity:0.571" fill="#e4e4e4" d="M 698.5,778.5 C 696.66,780.669 694.326,782.002 691.5,782.5C 693.336,780.412 695.669,779.079 698.5,778.5 Z"/></g>
<g><path style="opacity:0.571" fill="#e4e4e4" d="M 676.5,791.5 C 674.819,793.008 672.819,794.008 670.5,794.5C 671.911,792.461 673.911,791.461 676.5,791.5 Z"/></g>
<g><path style="opacity:0.535" fill="#e4e4e4" d="M 270.5,791.5 C 273.37,792.433 275.704,794.1 277.5,796.5C 274.63,795.567 272.296,793.9 270.5,791.5 Z"/></g>
<g><path style="opacity:0.628" fill="#e5e5e5" d="M 670.5,794.5 C 667.355,797.113 663.689,798.779 659.5,799.5C 662.751,797.043 666.418,795.376 670.5,794.5 Z"/></g>
<g><path style="opacity:0.5" fill="#e6e6e6" d="M 347.5,797.5 C 349.153,797.66 350.486,798.326 351.5,799.5C 349.62,799.771 348.287,799.104 347.5,797.5 Z"/></g>
<g><path style="opacity:0.571" fill="#e4e4e4" d="M 351.5,799.5 C 353.544,800.508 355.544,801.508 357.5,802.5C 354.687,802.975 352.687,801.975 351.5,799.5 Z"/></g>
<g><path style="opacity:0.571" fill="#e4e4e4" d="M 651.5,802.5 C 649.824,804.834 647.491,805.834 644.5,805.5C 646.649,804.264 648.982,803.264 651.5,802.5 Z"/></g>
<g><path style="opacity:0.642" fill="#e4e4e4" d="M 368.5,807.5 C 370.819,807.992 372.819,808.992 374.5,810.5C 371.687,810.975 369.687,809.975 368.5,807.5 Z"/></g>
<g><path style="opacity:0.571" fill="#e4e4e4" d="M 297.5,810.5 C 300.198,810.845 302.198,812.178 303.5,814.5C 301.147,813.66 299.147,812.326 297.5,810.5 Z"/></g>
<g><path style="opacity:0.5" fill="#e5e5e5" d="M 639.5,807.5 C 634.648,810.385 629.315,812.052 623.5,812.5C 628.652,810.54 633.985,808.874 639.5,807.5 Z"/></g>
<g><path style="opacity:0.141" fill="#e6e6e6" d="M 724.5,813.5 C 723.486,814.674 722.153,815.34 720.5,815.5C 721.287,813.896 722.62,813.229 724.5,813.5 Z"/></g>
<g><path style="opacity:0.551" fill="#e5e5e5" d="M 379.5,812.5 C 384.356,813.873 389.023,815.539 393.5,817.5C 389.708,817.274 386.041,816.44 382.5,815C 381.058,814.623 380.058,813.79 379.5,812.5 Z"/></g>
<g><path style="opacity:0.735" fill="#e4e4e4" d="M 605.5,814.5 C 609.378,814.864 613.378,814.864 617.5,814.5C 613.557,815.312 609.557,816.312 605.5,817.5C 605.5,816.5 605.5,815.5 605.5,814.5 Z"/></g>
<g><path style="opacity:0.612" fill="#e4e4e4" d="M 393.5,817.5 C 397.084,817.975 400.417,818.975 403.5,820.5C 399.584,820.975 396.251,819.975 393.5,817.5 Z"/></g>
<g><path style="opacity:0.571" fill="#e5e5e5" d="M 403.5,820.5 C 405.786,820.595 407.786,821.262 409.5,822.5C 406.99,822.946 404.99,822.28 403.5,820.5 Z"/></g>
<g><path style="opacity:0.572" fill="#e4e4e4" d="M 318.5,823.5 C 320.97,823.654 322.97,824.654 324.5,826.5C 322.03,826.346 320.03,825.346 318.5,823.5 Z"/></g>
<g><path style="opacity:0.643" fill="#e4e4e4" d="M 710.5,822.5 C 709.341,824.25 707.674,825.25 705.5,825.5C 706.486,823.592 708.152,822.592 710.5,822.5 Z"/></g>
<g><path style="opacity:0.141" fill="#e6e6e6" d="M 689.5,834.5 C 689.027,835.906 688.027,836.573 686.5,836.5C 686.973,835.094 687.973,834.427 689.5,834.5 Z"/></g>
<g><path style="opacity:0.571" fill="#e5e5e5" d="M 339.5,834.5 C 342.545,835.279 345.211,836.613 347.5,838.5C 344.279,838.104 341.612,836.771 339.5,834.5 Z"/></g>
<g><path style="opacity:0.141" fill="#e6e6e6" d="M 686.5,836.5 C 685.486,837.674 684.153,838.34 682.5,838.5C 683.287,836.896 684.62,836.229 686.5,836.5 Z"/></g>
<g><path style="opacity:0.572" fill="#e4e4e4" d="M 672.5,843.5 C 670.819,845.008 668.819,846.008 666.5,846.5C 667.687,844.025 669.687,843.025 672.5,843.5 Z"/></g>
<g><path style="opacity:0.571" fill="#e4e4e4" d="M 358.5,843.5 C 361.241,843.707 363.574,844.707 365.5,846.5C 362.759,846.293 360.426,845.293 358.5,843.5 Z"/></g>
<g><path style="opacity:0.524" fill="#e5e5e5" d="M 666.5,846.5 C 665.07,847.537 663.403,848.204 661.5,848.5C 662.635,846.787 664.302,846.12 666.5,846.5 Z"/></g>
<g><path style="opacity:0.141" fill="#e6e6e6" d="M 658.5,849.5 C 657.486,850.674 656.153,851.34 654.5,851.5C 655.287,849.896 656.62,849.229 658.5,849.5 Z"/></g>
<g><path style="opacity:0.571" fill="#e4e4e4" d="M 654.5,851.5 C 651.417,853.025 648.084,854.025 644.5,854.5C 647.408,852.395 650.742,851.395 654.5,851.5 Z"/></g>
<g><path style="opacity:0.607" fill="#e4e4e4" d="M 390.5,856.5 C 394.044,856.132 397.044,857.132 399.5,859.5C 396.33,858.735 393.33,857.735 390.5,856.5 Z"/></g>
<g><path style="opacity:0.595" fill="#e5e5e5" d="M 399.5,859.5 C 402.01,859.054 404.01,859.72 405.5,861.5C 403.214,861.405 401.214,860.738 399.5,859.5 Z"/></g>
<g><path style="opacity:0.572" fill="#e5e5e5" d="M 639.5,856.5 C 634.784,858.739 629.784,860.405 624.5,861.5C 629.041,858.875 634.041,857.209 639.5,856.5 Z"/></g>
<g><path style="opacity:0.66" fill="#e4e4e4" d="M 405.5,861.5 C 409.155,860.925 412.155,861.925 414.5,864.5C 411.215,864.072 408.215,863.072 405.5,861.5 Z"/></g>
<g><path style="opacity:0.619" fill="#e5e5e5" d="M 624.5,861.5 C 622.401,862.612 620.067,863.279 617.5,863.5C 617.611,862.883 617.944,862.383 618.5,862C 620.473,861.505 622.473,861.338 624.5,861.5 Z"/></g>
<g><path style="opacity:0.592" fill="#e5e5e5" d="M 415.5,864.5 C 418.553,864.111 421.22,864.777 423.5,866.5C 420.572,866.435 417.905,865.768 415.5,864.5 Z"/></g>
<g><path style="opacity:0.571" fill="#e4e4e4" d="M 613.5,864.5 C 611.485,865.924 609.152,866.59 606.5,866.5C 608.438,864.837 610.772,864.171 613.5,864.5 Z"/></g>
<g><path style="opacity:0.625" fill="#e4e4e4" d="M 423.5,866.5 C 427.647,866.126 431.314,867.126 434.5,869.5C 430.573,869.074 426.907,868.074 423.5,866.5 Z"/></g>
<g><path style="opacity:0.629" fill="#e5e5e5" d="M 606.5,866.5 C 602.615,867.49 598.615,868.49 594.5,869.5C 595.058,868.21 596.058,867.377 597.5,867C 600.482,866.502 603.482,866.335 606.5,866.5 Z"/></g>
<g><path style="opacity:0.551" fill="#e5e5e5" d="M 435.5,869.5 C 438.228,869.171 440.562,869.837 442.5,871.5C 439.848,871.59 437.515,870.924 435.5,869.5 Z"/></g>
<g><path style="opacity:0.571" fill="#e5e5e5" d="M 589.5,869.5 C 581.085,871.819 572.418,873.486 563.5,874.5C 565.148,873.073 567.148,872.24 569.5,872C 576.273,871.613 582.94,870.78 589.5,869.5 Z"/></g>
</svg>
